<?xml version="1.0" encoding="UTF-8"?>
<svg version="1.1" xmlns="http://www.w3.org/2000/svg" width="730" height="330">
<path d="M0 0 C167.97 0 335.94 0 509 0 C509 81.84 509 163.68 509 248 C341.03 248 173.06 248 0 248 C0 166.16 0 84.32 0 0 Z " fill="#233765" transform="translate(219,0)"/>
<path d="M0 0 C65.67 0 131.34 0 199 0 C199 81.84 199 163.68 199 248 C133.33 248 67.66 248 0 248 C0 166.16 0 84.32 0 0 Z " fill="#223665" transform="translate(0,0)"/>
<path d="M0 0 C65.67 0 131.34 0 199 0 C199 16.83 199 33.66 199 51 C133.33 51 67.66 51 0 51 C0 34.17 0 17.34 0 0 Z " fill="#223665" transform="translate(0,267)"/>
<path d="M0 0 C21 0 21 0 27 4 C31.64784761 9.12865943 31.20991554 14.80114915 31.25 21.375 C31.270625 22.21289062 31.29125 23.05078125 31.3125 23.9140625 C31.34476729 29.04456169 30.86252902 32.56308002 28 37 C20.74104242 43.71453576 17.28995383 42 6 42 C6 51.24 6 60.48 6 70 C4.02 70 2.04 70 0 70 C0 46.9 0 23.8 0 0 Z " fill="#FBFBFC" transform="translate(358,113)"/>
<path d="M0 0 C2.97 0 5.94 0 9 0 C10.95822612 8.83101214 12.91419849 17.66251951 14.86727142 26.49467278 C15.77416914 30.59549199 16.68185106 34.69613438 17.59130859 38.79638672 C18.46846437 42.75114303 19.34358185 46.70634526 20.2172699 50.66186905 C20.55145762 52.1731495 20.88638753 53.68426602 21.22206116 55.19521713 C21.69100471 57.30664005 22.15733902 59.41862313 22.62304688 61.53076172 C22.88952026 62.73433319 23.15599365 63.93790466 23.43054199 65.177948 C24 68 24 68 24 70 C21.69 70 19.38 70 17 70 C16.49564306 68.0636296 15.99666126 66.12585854 15.5 64.1875 C15.08234375 62.56908203 15.08234375 62.56908203 14.65625 60.91796875 C14 58 14 58 14 55 C7.4 55 0.8 55 -6 55 C-6.33 57.97 -6.66 60.94 -7 64 C-7.6025301 66.02024799 -8.24320565 68.03233469 -9 70 C-10.98 70 -12.96 70 -15 70 C-13.6416201 61.47556185 -12.06255626 53.01488697 -10.3125 44.5625 C-10.05774902 43.32927002 -9.80299805 42.09604004 -9.54052734 40.82543945 C-6.67221044 27.14171787 -3.37266225 13.56736878 0 0 Z " fill="#F9F9FA" transform="translate(530,113)"/>
<path d="M0 0 C5.38424837 5.03310174 7.04137637 10.0940613 7.3359375 17.30078125 C7.35971373 19.30458875 7.37243248 21.30855309 7.375 23.3125 C7.39949219 24.30701172 7.42398438 25.30152344 7.44921875 26.32617188 C7.47800341 33.63267724 6.35774686 39.92021399 1.60693359 45.69262695 C-1.17760587 47.95807953 -4.53265829 48.11535188 -8 48 C-11.72746368 46.426182 -13.96677972 44.48552048 -16 41 C-18.07645785 35.15232826 -18.33455347 29.79997159 -18.3125 23.625 C-18.33666992 22.28308594 -18.33666992 22.28308594 -18.36132812 20.9140625 C-18.36645626 13.85774411 -17.51610639 7.14513299 -13 1.5 C-8.93277662 -1.55041753 -4.71349578 -1.49137952 0 0 Z " fill="#263967" transform="translate(559,46)"/>
<path d="M0 0 C17 0 17 0 24 2 C29.14939997 7.2849105 29.2964094 11.96980193 29.2109375 19.046875 C28.94595536 22.75662497 28.27737386 25.03941398 26 28 C18.85833924 32.6024036 12.4698433 32 4 32 C4 40.58 4 49.16 4 58 C2.68 58 1.36 58 0 58 C0 38.86 0 19.72 0 0 Z " fill="#FDFDFD" transform="translate(309,41)"/>
<path d="M0 0 C4.61574207 2.44073355 6.77276123 5.3238563 8.58203125 10.09375 C9.06821404 13.49702954 8.95179422 16.84547195 8.89453125 20.28125 C6.58453125 20.28125 4.27453125 20.28125 1.89453125 20.28125 C1.86875 19.60578125 1.84296875 18.9303125 1.81640625 18.234375 C1.49255643 12.66767061 1.49255643 12.66767061 -0.73046875 7.65625 C-4.06174217 5.72761802 -6.31904744 5.80794734 -10.10546875 6.28125 C-13.29050445 8.04140131 -13.93843847 8.78015916 -15.10546875 12.28125 C-15.37599358 14.36275573 -15.37599358 14.36275573 -15.41796875 16.59375 C-15.45535156 17.33238281 -15.49273438 18.07101563 -15.53125 18.83203125 C-14.38262648 25.43925093 -9.30962432 28.93232966 -4.23046875 32.59375 C8.01181271 41.91375178 8.01181271 41.91375178 9.37890625 50.2265625 C9.66930615 56.66376027 8.86261294 62.09030037 4.89453125 67.28125 C1.18650529 70.98927596 -1.9647871 71.59649771 -7.04296875 71.84375 C-11.85724434 71.6645586 -15.11332764 71.0178138 -18.76953125 67.81640625 C-23.88937167 61.93308085 -23.46736864 55.69349588 -23.10546875 48.28125 C-21.12546875 48.28125 -19.14546875 48.28125 -17.10546875 48.28125 C-16.90630859 49.52841797 -16.90630859 49.52841797 -16.703125 50.80078125 C-16.52652344 51.88746094 -16.34992187 52.97414062 -16.16796875 54.09375 C-15.99394531 55.17269531 -15.81992187 56.25164062 -15.640625 57.36328125 C-15.16674954 60.33058356 -15.16674954 60.33058356 -14.10546875 63.28125 C-7.32719463 64.65588613 -7.32719463 64.65588613 -0.98046875 62.53125 C1.78418759 57.739179 2.06992561 53.6728977 0.89453125 48.28125 C-2.32073427 42.55748011 -7.7872661 38.8706595 -12.953125 35.01171875 C-16.99811181 31.75957872 -20.45213458 28.2412525 -22.10546875 23.28125 C-23.1232432 9.84996425 -23.1232432 9.84996425 -20.29296875 5.59375 C-19.57109375 4.830625 -18.84921875 4.0675 -18.10546875 3.28125 C-17.58984375 2.683125 -17.07421875 2.085 -16.54296875 1.46875 C-12.31680025 -2.02243267 -4.95413933 -1.69120897 0 0 Z " fill="#F8F8F9" transform="translate(677.10546875,112.71875)"/>
<path d="M0 0 C4.61574207 2.44073355 6.77276123 5.3238563 8.58203125 10.09375 C9.06821404 13.49702954 8.95179422 16.84547195 8.89453125 20.28125 C6.58453125 20.28125 4.27453125 20.28125 1.89453125 20.28125 C1.86875 19.60578125 1.84296875 18.9303125 1.81640625 18.234375 C1.49255643 12.66767061 1.49255643 12.66767061 -0.73046875 7.65625 C-4.06174217 5.72761802 -6.31904744 5.80794734 -10.10546875 6.28125 C-13.29050445 8.04140131 -13.93843847 8.78015916 -15.10546875 12.28125 C-15.37599358 14.36275573 -15.37599358 14.36275573 -15.41796875 16.59375 C-15.45535156 17.33238281 -15.49273437 18.07101563 -15.53125 18.83203125 C-14.38262648 25.43925093 -9.30962432 28.93232966 -4.23046875 32.59375 C8.01181271 41.91375178 8.01181271 41.91375178 9.37890625 50.2265625 C9.66930615 56.66376027 8.86261294 62.09030037 4.89453125 67.28125 C1.18650529 70.98927596 -1.9647871 71.59649771 -7.04296875 71.84375 C-11.85724434 71.6645586 -15.11332764 71.0178138 -18.76953125 67.81640625 C-23.88937167 61.93308085 -23.46736864 55.69349588 -23.10546875 48.28125 C-21.12546875 48.28125 -19.14546875 48.28125 -17.10546875 48.28125 C-16.90630859 49.52841797 -16.90630859 49.52841797 -16.703125 50.80078125 C-16.52652344 51.88746094 -16.34992188 52.97414062 -16.16796875 54.09375 C-15.99394531 55.17269531 -15.81992187 56.25164062 -15.640625 57.36328125 C-15.16674954 60.33058356 -15.16674954 60.33058356 -14.10546875 63.28125 C-7.32719463 64.65588613 -7.32719463 64.65588613 -0.98046875 62.53125 C1.78418759 57.739179 2.06992561 53.6728977 0.89453125 48.28125 C-2.32073427 42.55748011 -7.7872661 38.8706595 -12.953125 35.01171875 C-16.99811181 31.75957872 -20.45213458 28.2412525 -22.10546875 23.28125 C-23.1232432 9.84996425 -23.1232432 9.84996425 -20.29296875 5.59375 C-19.57109375 4.830625 -18.84921875 4.0675 -18.10546875 3.28125 C-17.58984375 2.683125 -17.07421875 2.085 -16.54296875 1.46875 C-12.31680025 -2.02243267 -4.95413933 -1.69120897 0 0 Z " fill="#F8F8F9" transform="translate(334.10546875,112.71875)"/>
<path d="M0 0 C4.53395361 2.35342931 6.930366 5.22746525 8.47265625 10.03515625 C9.02798204 12.89683508 9.00041262 15.60657015 8.96875 18.51953125 C8.95972656 19.5971875 8.95070313 20.67484375 8.94140625 21.78515625 C8.92980469 22.605 8.91820312 23.42484375 8.90625 24.26953125 C6.92625 24.26953125 4.94625 24.26953125 2.90625 24.26953125 C2.86886719 23.54507813 2.83148438 22.820625 2.79296875 22.07421875 C2.41553987 16.52379411 2.04526561 12.04083497 -1.09375 7.26953125 C-4.15068322 5.74106464 -6.72359547 6.0371068 -10.09375 6.26953125 C-13.2787857 8.02968256 -13.92671972 8.76844041 -15.09375 12.26953125 C-15.19455903 13.72577487 -15.242017 15.18607993 -15.25488281 16.64575195 C-15.26929413 17.9677636 -15.26929413 17.9677636 -15.28399658 19.31648254 C-15.28824646 20.26649643 -15.29249634 21.21651031 -15.296875 22.1953125 C-15.30257507 23.17565964 -15.30827515 24.15600677 -15.31414795 25.1660614 C-15.32359604 27.24147462 -15.33013117 29.31690283 -15.33398438 31.39233398 C-15.34368056 34.55935009 -15.37470213 37.7257146 -15.40625 40.89257812 C-15.41278121 42.9101524 -15.41803122 44.92773131 -15.421875 46.9453125 C-15.4342218 47.88925369 -15.4465686 48.83319489 -15.45928955 49.80574036 C-15.44166842 55.03611177 -15.08109977 58.76896064 -12.09375 63.26953125 C-8.80475723 64.91402764 -5.44113444 64.34438594 -1.84375 64.14453125 C0.20572014 63.36019394 0.20572014 63.36019394 0.9765625 60.64453125 C1.93579698 57.16226827 2.31080294 53.99516652 2.53125 50.39453125 C2.60601562 49.24210937 2.68078125 48.0896875 2.7578125 46.90234375 C2.80679687 46.03351563 2.85578125 45.1646875 2.90625 44.26953125 C4.88625 44.26953125 6.86625 44.26953125 8.90625 44.26953125 C9.72444378 61.7243319 9.72444378 61.7243319 4.90625 67.26953125 C1.37627618 70.4611397 -1.99862849 71.50316322 -6.71875 71.64453125 C-10.96983755 71.41396379 -14.3256248 71.02258721 -17.46875 67.90625 C-21.09736887 63.75189374 -22.210422 60.74324791 -22.27075195 55.3425293 C-22.28358719 54.34106369 -22.29642242 53.33959808 -22.30964661 52.30778503 C-22.32072701 50.68590019 -22.32072701 50.68590019 -22.33203125 49.03125 C-22.340103 47.91772659 -22.34817474 46.80420319 -22.35649109 45.65693665 C-22.37032728 43.29905757 -22.38105151 40.94115851 -22.38891602 38.58325195 C-22.40613281 34.98154691 -22.450025 31.38075877 -22.49414062 27.77929688 C-22.50426733 25.488288 -22.5127835 23.19727132 -22.51953125 20.90625 C-22.53703934 19.83106613 -22.55454742 18.75588226 -22.57258606 17.64811707 C-22.55483463 11.51415628 -22.20614698 7.92774265 -18.09375 3.26953125 C-12.81472997 -1.50672497 -6.68510138 -2.33230216 0 0 Z " fill="#FBFBFC" transform="translate(469.09375,112.73046875)"/>
<path d="M0 0 C1.98 0 3.96 0 6 0 C11.5797281 19.17289549 17.12694349 38.39689817 21 58 C19.35 58 17.7 58 16 58 C15.32873871 55.5636811 14.66283646 53.12611117 14 50.6875 C13.80921875 49.99720703 13.6184375 49.30691406 13.421875 48.59570312 C12.62283816 45.64212051 12 43.07440781 12 40 C6.06 40 0.12 40 -6 40 C-6.45375 41.670625 -6.9075 43.34125 -7.375 45.0625 C-8.55314254 49.38421719 -9.75679416 53.69659517 -11 58 C-12.32 58 -13.64 58 -15 58 C-14.42483713 51.31457752 -13.15072974 45.19428828 -11.3125 38.75 C-11.04920898 37.80705078 -10.78591797 36.86410156 -10.51464844 35.89257812 C-9.68387429 32.92623153 -8.84262151 29.96300069 -8 27 C-7.44643512 25.03650892 -6.89304705 23.07296798 -6.33984375 21.109375 C-2.05786317 5.97945147 -2.05786317 5.97945147 0 0 Z " fill="#F4F4F6" transform="translate(451,41)"/>
<path d="M0 0 C1.98 0 3.96 0 6 0 C11.5797281 19.17289549 17.12694349 38.39689817 21 58 C19.35 58 17.7 58 16 58 C15.32873871 55.5636811 14.66283646 53.12611117 14 50.6875 C13.80921875 49.99720703 13.6184375 49.30691406 13.421875 48.59570312 C12.62283816 45.64212051 12 43.07440781 12 40 C6.06 40 0.12 40 -6 40 C-6.45375 41.670625 -6.9075 43.34125 -7.375 45.0625 C-8.55314254 49.38421719 -9.75679416 53.69659517 -11 58 C-12.32 58 -13.64 58 -15 58 C-14.42483713 51.31457752 -13.15072974 45.19428828 -11.3125 38.75 C-11.04920898 37.80705078 -10.78591797 36.86410156 -10.51464844 35.89257812 C-9.68387429 32.92623153 -8.84262151 29.96300069 -8 27 C-7.44643512 25.03650892 -6.89304705 23.07296798 -6.33984375 21.109375 C-2.05786317 5.97945147 -2.05786317 5.97945147 0 0 Z " fill="#F4F4F6" transform="translate(281,41)"/>
<path d="M0 0 C1.65 0 3.3 0 5 0 C5 13.53 5 27.06 5 41 C7.64 41 10.28 41 13 41 C13.17390259 39.24357178 13.17390259 39.24357178 13.35131836 37.45166016 C13.78159088 33.11645941 14.21703115 28.78179078 14.65405273 24.44726562 C14.84264372 22.56947766 15.02982394 20.69154746 15.21557617 18.81347656 C15.48247389 16.11745376 15.75440427 13.42197949 16.02734375 10.7265625 C16.10967758 9.88380768 16.19201141 9.04105286 16.27684021 8.17276001 C16.88612829 2.22774341 16.88612829 2.22774341 18 0 C20.64 0 23.28 0 26 0 C26.57566122 5.38878611 27.14509539 10.77818218 27.70898438 16.16821289 C27.90132007 17.99846778 28.09530124 19.82855058 28.29101562 21.65844727 C28.57343442 24.30180074 28.84976023 26.94573426 29.125 29.58984375 C29.21249512 30.39646957 29.29999023 31.2030954 29.39013672 32.03416443 C29.93930164 37.38386086 30.07518617 42.62183942 30 48 C28.35 48 26.7 48 25 48 C24.67 45.03 24.34 42.06 24 39 C22.35 39 20.7 39 19 39 C18.67 41.97 18.34 44.94 18 48 C12.06 48 6.12 48 0 48 C0 32.16 0 16.32 0 0 Z M21 14 C20.10395632 20.04829486 19.88730557 25.8894576 20 32 C20.99 32 21.98 32 23 32 C22.67 26.06 22.34 20.12 22 14 C21.67 14 21.34 14 21 14 Z " fill="#223665" transform="translate(221,269)"/>
<path d="M0 0 C9.57 0 19.14 0 29 0 C29 1.98 29 3.96 29 6 C21.41 6 13.82 6 6 6 C6 14.25 6 22.5 6 31 C12.27 31 18.54 31 25 31 C25 32.98 25 34.96 25 37 C18.73 37 12.46 37 6 37 C6 45.91 6 54.82 6 64 C13.59 64 21.18 64 29 64 C29 65.98 29 67.96 29 70 C19.43 70 9.86 70 0 70 C0 46.9 0 23.8 0 0 Z " fill="#FFFFFF" transform="translate(611,113)"/>
<path d="M0 0 C9.57 0 19.14 0 29 0 C29 1.98 29 3.96 29 6 C21.41 6 13.82 6 6 6 C6 14.25 6 22.5 6 31 C12.27 31 18.54 31 25 31 C25 32.98 25 34.96 25 37 C18.73 37 12.46 37 6 37 C6 45.91 6 54.82 6 64 C13.59 64 21.18 64 29 64 C29 65.98 29 67.96 29 70 C19.43 70 9.86 70 0 70 C0 46.9 0 23.8 0 0 Z " fill="#FFFFFF" transform="translate(403,113)"/>
<path d="M0 0 C9.57 0 19.14 0 29 0 C29 1.98 29 3.96 29 6 C21.41 6 13.82 6 6 6 C6 14.25 6 22.5 6 31 C12.27 31 18.54 31 25 31 C25 32.98 25 34.96 25 37 C18.73 37 12.46 37 6 37 C6 45.91 6 54.82 6 64 C13.59 64 21.18 64 29 64 C29 65.98 29 67.96 29 70 C19.43 70 9.86 70 0 70 C0 46.9 0 23.8 0 0 Z " fill="#FFFFFF" transform="translate(268,113)"/>
<path d="M0 0 C1.65 0 3.3 0 5 0 C10.00036963 9.45241971 14.0993596 19.30622967 18.3125 29.125 C20.849375 35.02375 23.38625 40.9225 26 47 C26.33 31.49 26.66 15.98 27 0 C28.65 0 30.3 0 32 0 C32 19.14 32 38.28 32 58 C30.02 58 28.04 58 26 58 C23.32919028 52.11080412 20.66009749 46.22083234 17.9921875 40.33032227 C17.08470381 38.32721407 16.17682964 36.32428274 15.26855469 34.3215332 C13.96185851 31.44008227 12.65657551 28.55799481 11.3515625 25.67578125 C10.94628326 24.78288895 10.54100403 23.88999664 10.1234436 22.970047 C9.74320038 22.12955307 9.36295715 21.28905914 8.97119141 20.4230957 C8.63809967 19.68807327 8.30500793 18.95305084 7.96182251 18.195755 C6.92109791 15.81987357 5.96332186 13.40830465 5 11 C4.67 26.51 4.34 42.02 4 58 C2.68 58 1.36 58 0 58 C0 38.86 0 19.72 0 0 Z " fill="#F5F5F6" transform="translate(581,41)"/>
<path d="M0 0 C5.47263219 3.56910795 8.15449184 7.66691674 9.875 13.875 C10.27593067 18.09849282 10.19948633 22.32173818 10.1875 26.5625 C10.20361328 27.68333984 10.21972656 28.80417969 10.23632812 29.95898438 C10.24618671 46.9453293 10.24618671 46.9453293 5.13012695 52.90893555 C1.48135391 56.21663536 -1.42263926 57.74651994 -6.4375 58.125 C-12.44363371 57.71780449 -16.21129421 55.32929474 -20.125 50.875 C-23.50521949 43.22170304 -23.61517675 34.97714996 -23.5625 26.75 C-23.58248047 25.63496094 -23.60246094 24.51992187 -23.62304688 23.37109375 C-23.61865326 15.9107309 -22.88122098 8.97258318 -17.64208984 3.25732422 C-12.25313057 -1.45863983 -6.75858857 -2.43309189 0 0 Z M-15.8125 8.625 C-19.43047797 14.82724795 -19.46246757 21.25908015 -19.4375 28.25 C-19.45361328 29.14460938 -19.46972656 30.03921875 -19.48632812 30.9609375 C-19.49145979 38.02210314 -18.44711155 44.43483474 -14.4375 50.375 C-11.11791002 52.52824756 -8.06341352 53.07898158 -4.125 52.875 C0.577138 50.88965284 2.91954897 48.056379 4.9375 43.44921875 C6.25067807 38.44272735 6.20393532 33.65411674 6.1875 28.5 C6.20361328 27.49710938 6.21972656 26.49421875 6.23632812 25.4609375 C6.2410624 18.2269651 5.39986555 12.52202802 1.1875 6.4375 C-5.00063422 2.25632823 -10.73957335 3.36418718 -15.8125 8.625 Z " fill="#F8F8F9" transform="translate(560.125,41.125)"/>
<path d="M0 0 C2.78617341 2.23031122 5.01554723 4.53178238 6.0859375 7.95703125 C6.2109375 10.70703125 6.2109375 10.70703125 6.0859375 12.95703125 C4.4359375 12.95703125 2.7859375 12.95703125 1.0859375 12.95703125 C0.6734375 11.84328125 0.2609375 10.72953125 -0.1640625 9.58203125 C-1.16499001 7.28823905 -1.70928305 6.12524294 -3.6640625 4.51953125 C-8.18373796 3.38961239 -11.59755466 3.34079354 -15.8515625 5.33203125 C-18.57132833 8.7935514 -18.47391915 11.22299136 -18.48046875 15.51953125 C-17.71631247 18.80803826 -16.56762586 19.88258433 -13.9140625 21.95703125 C-11.63984684 23.04128186 -9.32164076 24.03601866 -6.9765625 24.95703125 C-1.64077878 27.05710441 3.1083897 28.98174785 6.37890625 33.90234375 C8.14236699 39.02709707 7.67684223 44.40942364 5.7734375 49.39453125 C2.45022349 54.44089326 0.14190514 55.64490493 -5.9140625 56.95703125 C-11.79746069 57.59885651 -16.1821984 56.44690933 -20.9140625 52.95703125 C-23.87539355 49.60583309 -24.87896583 46.50980378 -25.1640625 42.01953125 C-25.0403125 40.50359375 -25.0403125 40.50359375 -24.9140625 38.95703125 C-23.5940625 38.95703125 -22.2740625 38.95703125 -20.9140625 38.95703125 C-20.66011719 39.65570313 -20.40617188 40.354375 -20.14453125 41.07421875 C-19.62826172 42.43933594 -19.62826172 42.43933594 -19.1015625 43.83203125 C-18.76511719 44.73695312 -18.42867187 45.641875 -18.08203125 46.57421875 C-17.01757226 49.25128974 -17.01757226 49.25128974 -13.9140625 50.95703125 C-9.65493263 51.57117544 -5.94165063 51.3943028 -1.9765625 49.70703125 C0.25893286 47.81024731 1.20974269 46.74492384 2.0859375 43.95703125 C2.30033736 40.52663355 2.45600184 37.15384805 1.0859375 33.95703125 C-2.05329783 32.16109662 -5.43609144 30.92151333 -8.7890625 29.58203125 C-14.27364909 27.29734354 -18.79994938 25.35302612 -22.7890625 20.83203125 C-24.47764744 16.51675864 -24.58052381 12.52705164 -23.9140625 7.95703125 C-21.90201977 4.00480446 -19.74121879 1.2294053 -15.9140625 -1.04296875 C-10.82576905 -2.66991236 -4.75007484 -2.58830609 0 0 Z " fill="#F6F6F8" transform="translate(682.9140625,42.04296875)"/>
<path d="M0 0 C3.63 0 7.26 0 11 0 C14.44246762 4.58995682 14.35865571 6.00476057 14.25 11.5625 C14.24484375 12.23474609 14.2396875 12.90699219 14.234375 13.59960938 C14.18585283 16.6534736 13.97175456 19.08473632 13 22 C13.30292969 22.55816406 13.60585938 23.11632812 13.91796875 23.69140625 C15.48549945 27.035849 15.32900013 30.31737233 15.3125 33.9375 C15.32861328 34.64068359 15.34472656 35.34386719 15.36132812 36.06835938 C15.36555582 40.57930884 14.70964029 43.38485967 12 47 C11.505 47.495 11.505 47.495 11 48 C7.37 48 3.74 48 0 48 C0 32.16 0 16.32 0 0 Z M5 7 C5 10.96 5 14.92 5 19 C6.32 18.34 7.64 17.68 9 17 C9 14.36 9 11.72 9 9 C7.68 8.34 6.36 7.68 5 7 Z M5 26 C5 30.95 5 35.9 5 41 C6.32 40.67 7.64 40.34 9 40 C10.58493084 36.83013832 10.2940042 33.45967739 10 30 C9.13734032 27.59442147 9.13734032 27.59442147 8 26 C7.01 26 6.02 26 5 26 Z " fill="#223665" transform="translate(524,269)"/>
<path d="M0 0 C1.98 0 3.96 0 6 0 C6 21.12 6 42.24 6 64 C13.26 64 20.52 64 28 64 C28 65.98 28 67.96 28 70 C18.76 70 9.52 70 0 70 C0 46.9 0 23.8 0 0 Z " fill="#FFFFFF" transform="translate(568,113)"/>
<path d="M0 0 C8.58 0 17.16 0 26 0 C26 1.65 26 3.3 26 5 C18.74 5 11.48 5 4 5 C4 11.27 4 17.54 4 24 C10.6 24 17.2 24 24 24 C24 25.65 24 27.3 24 29 C17.4 29 10.8 29 4 29 C4 36.92 4 44.84 4 53 C11.26 53 18.52 53 26 53 C26 54.65 26 56.3 26 58 C17.42 58 8.84 58 0 58 C0 38.86 0 19.72 0 0 Z " fill="#FFFFFF" transform="translate(625,41)"/>
<path d="M0 0 C4.4430538 2.43289548 6.38206312 5.71353814 7.8125 10.5 C8.0625 14 8.0625 14 7.8125 16.5 C6.4925 16.5 5.1725 16.5 3.8125 16.5 C3.64234375 15.88511719 3.4721875 15.27023438 3.296875 14.63671875 C1.84320137 9.69412171 1.84320137 9.69412171 -0.9375 5.4375 C-5.14736651 3.68338895 -8.75723014 3.9148896 -12.9375 5.625 C-16.70478344 8.76440287 -18.21401128 12.79498683 -19.1875 17.5 C-19.4316572 20.89267532 -19.4185946 24.28689096 -19.4375 27.6875 C-19.458125 28.59564453 -19.47875 29.50378906 -19.5 30.43945312 C-19.53754855 36.99636852 -19.08888414 43.88782874 -14.82519531 49.19604492 C-12.00490416 51.44159875 -8.67206377 51.60228661 -5.1875 51.5 C-1.60439187 50.14638137 -0.46114885 48.9397928 1.5625 45.6875 C2.77934479 42.58454578 3.41950787 39.80113385 3.8125 36.5 C5.4625 36.5 7.1125 36.5 8.8125 36.5 C7.78500552 44.09805127 6.76886315 50.02319602 0.75 55.3125 C-3.21443374 57.74231423 -6.63059033 57.80894303 -11.1875 57.5 C-16.48819338 55.52523188 -19.61852857 52.90490218 -22.00537109 47.72509766 C-24.56904075 40.84572727 -24.66906071 34.28203339 -24.625 27 C-24.64498047 25.82824219 -24.66496094 24.65648437 -24.68554688 23.44921875 C-24.68126607 15.82081634 -24.07569995 8.7351549 -18.70458984 2.88476562 C-13.03547685 -2.08512756 -6.9294651 -2.93468018 0 0 Z " fill="#F8F8F9" transform="translate(503.1875,41.5)"/>
<path d="M0 0 C4.4430538 2.43289548 6.38206312 5.71353814 7.8125 10.5 C8.0625 14 8.0625 14 7.8125 16.5 C6.4925 16.5 5.1725 16.5 3.8125 16.5 C3.64234375 15.88511719 3.4721875 15.27023438 3.296875 14.63671875 C1.84320137 9.69412171 1.84320137 9.69412171 -0.9375 5.4375 C-5.14736651 3.68338895 -8.75723014 3.9148896 -12.9375 5.625 C-16.70478344 8.76440287 -18.21401128 12.79498683 -19.1875 17.5 C-19.4316572 20.89267532 -19.4185946 24.28689096 -19.4375 27.6875 C-19.458125 28.59564453 -19.47875 29.50378906 -19.5 30.43945312 C-19.53754855 36.99636852 -19.08888414 43.88782874 -14.82519531 49.19604492 C-12.00490416 51.44159875 -8.67206377 51.60228661 -5.1875 51.5 C-1.60439187 50.14638137 -0.46114885 48.9397928 1.5625 45.6875 C2.77934479 42.58454578 3.41950787 39.80113385 3.8125 36.5 C5.4625 36.5 7.1125 36.5 8.8125 36.5 C7.78500552 44.09805127 6.76886315 50.02319602 0.75 55.3125 C-3.21443374 57.74231423 -6.63059033 57.80894303 -11.1875 57.5 C-16.48819338 55.52523188 -19.61852857 52.90490218 -22.00537109 47.72509766 C-24.56904075 40.84572727 -24.66906071 34.28203339 -24.625 27 C-24.64498047 25.82824219 -24.66496094 24.65648437 -24.68554688 23.44921875 C-24.68126607 15.82081634 -24.07569995 8.7351549 -18.70458984 2.88476562 C-13.03547685 -2.08512756 -6.9294651 -2.93468018 0 0 Z " fill="#F8F8F9" transform="translate(421.1875,41.5)"/>
<path d="M0 0 C3.625 0.25 3.625 0.25 5.5 1.625 C8.22733679 5.56448648 7.78692143 9.42429938 7.79296875 14.0546875 C7.79629715 14.93021271 7.79962555 15.80573792 7.80305481 16.70779419 C7.8081227 18.56218947 7.81046318 20.41659389 7.81030273 22.27099609 C7.81248583 25.1065987 7.83063353 27.9418102 7.84960938 30.77734375 C7.852544 32.57812367 7.85452833 34.37890544 7.85546875 36.1796875 C7.86265427 37.02771942 7.86983978 37.87575134 7.87724304 38.7494812 C7.87416641 39.54355377 7.87108978 40.33762634 7.86791992 41.15576172 C7.86934494 41.85144257 7.87076996 42.54712341 7.87223816 43.2638855 C7.57741052 45.63229602 6.87078571 47.22205483 5.625 49.25 C2.57516004 50.77491998 -0.0173369 50.48562548 -3.375 50.25 C-5.99093153 48.41884793 -6.34489455 47.34031634 -7.375 44.25 C-7.49610727 41.43187044 -7.56315045 38.63925304 -7.578125 35.8203125 C-7.58382507 34.992966 -7.58952515 34.16561951 -7.59539795 33.3132019 C-7.60484023 31.56314368 -7.61137887 29.81306773 -7.61523438 28.06298828 C-7.62493847 25.39193569 -7.65596785 22.72165325 -7.6875 20.05078125 C-7.69403058 18.34896289 -7.69928084 16.64713904 -7.703125 14.9453125 C-7.7154718 14.14932648 -7.7278186 13.35334045 -7.74053955 12.53323364 C-7.71677047 6.58737311 -6.82987601 0.50591674 0 0 Z M-0.375 7.25 C-3.56624845 12.03687268 -2.70826278 17.53171241 -2.69067383 23.12890625 C-2.68751091 25.2427105 -2.71099013 27.35511846 -2.73632812 29.46875 C-2.73860095 30.81249824 -2.73930469 32.15625023 -2.73828125 33.5 C-2.74126221 34.72203125 -2.74424316 35.9440625 -2.74731445 37.203125 C-2.64313354 40.25466121 -2.64313354 40.25466121 -0.85229492 42.171875 C-0.3647876 42.52765625 0.12271973 42.8834375 0.625 43.25 C4.1273688 39.7476312 2.92896254 34.53188586 2.94726562 29.796875 C2.94509033 29.05115234 2.94291504 28.30542969 2.94067383 27.53710938 C2.93751197 25.2586291 2.96097517 22.98144479 2.98632812 20.703125 C2.98860088 19.26041831 2.98930473 17.81770812 2.98828125 16.375 C2.99126221 15.05757813 2.99424316 13.74015625 2.99731445 12.3828125 C2.87445068 11.34898437 2.75158691 10.31515625 2.625 9.25 C1.635 8.59 0.645 7.93 -0.375 7.25 Z " fill="#223665" transform="translate(720.375,267.75)"/>
<path d="M0 0 C3.625 0.25 3.625 0.25 5.5 1.625 C8.22733679 5.56448648 7.78692143 9.42429938 7.79296875 14.0546875 C7.79629715 14.93021271 7.79962555 15.80573792 7.80305481 16.70779419 C7.8081227 18.56218947 7.81046318 20.41659389 7.81030273 22.27099609 C7.81248583 25.1065987 7.83063353 27.9418102 7.84960938 30.77734375 C7.852544 32.57812367 7.85452833 34.37890544 7.85546875 36.1796875 C7.86265427 37.02771942 7.86983978 37.87575134 7.87724304 38.7494812 C7.87416641 39.54355377 7.87108978 40.33762634 7.86791992 41.15576172 C7.86934494 41.85144257 7.87076996 42.54712341 7.87223816 43.2638855 C7.57741052 45.63229602 6.87078571 47.22205483 5.625 49.25 C2.57516004 50.77491998 -0.0173369 50.48562548 -3.375 50.25 C-5.99093153 48.41884793 -6.34489455 47.34031634 -7.375 44.25 C-7.49610727 41.43187044 -7.56315045 38.63925304 -7.578125 35.8203125 C-7.58382507 34.992966 -7.58952515 34.16561951 -7.59539795 33.3132019 C-7.60484023 31.56314368 -7.61137887 29.81306773 -7.61523438 28.06298828 C-7.62493847 25.39193569 -7.65596785 22.72165325 -7.6875 20.05078125 C-7.69403058 18.34896289 -7.69928084 16.64713904 -7.703125 14.9453125 C-7.7154718 14.14932648 -7.7278186 13.35334045 -7.74053955 12.53323364 C-7.71677047 6.58737311 -6.82987601 0.50591674 0 0 Z M-0.375 7.25 C-3.56624845 12.03687268 -2.70826278 17.53171241 -2.69067383 23.12890625 C-2.68751091 25.2427105 -2.71099013 27.35511846 -2.73632812 29.46875 C-2.73860095 30.81249824 -2.73930469 32.15625023 -2.73828125 33.5 C-2.74126221 34.72203125 -2.74424316 35.9440625 -2.74731445 37.203125 C-2.64313354 40.25466121 -2.64313354 40.25466121 -0.85229492 42.171875 C-0.3647876 42.52765625 0.12271973 42.8834375 0.625 43.25 C4.1273688 39.7476312 2.92896254 34.53188586 2.94726562 29.796875 C2.94509033 29.05115234 2.94291504 28.30542969 2.94067383 27.53710938 C2.93751197 25.2586291 2.96097517 22.98144479 2.98632812 20.703125 C2.98860088 19.26041831 2.98930473 17.81770812 2.98828125 16.375 C2.99126221 15.05757813 2.99424316 13.74015625 2.99731445 12.3828125 C2.87445068 11.34898437 2.75158691 10.31515625 2.625 9.25 C1.635 8.59 0.645 7.93 -0.375 7.25 Z " fill="#223665" transform="translate(618.375,267.75)"/>
<path d="M0 0 C3.625 0.25 3.625 0.25 5.5 1.625 C8.22733679 5.56448648 7.78692143 9.42429938 7.79296875 14.0546875 C7.79629715 14.93021271 7.79962555 15.80573792 7.80305481 16.70779419 C7.8081227 18.56218947 7.81046318 20.41659389 7.81030273 22.27099609 C7.81248583 25.1065987 7.83063353 27.9418102 7.84960938 30.77734375 C7.852544 32.57812367 7.85452833 34.37890544 7.85546875 36.1796875 C7.86265427 37.02771942 7.86983978 37.87575134 7.87724304 38.7494812 C7.87416641 39.54355377 7.87108978 40.33762634 7.86791992 41.15576172 C7.86934494 41.85144257 7.87076996 42.54712341 7.87223816 43.2638855 C7.57741052 45.63229602 6.87078571 47.22205483 5.625 49.25 C2.57516004 50.77491998 -0.0173369 50.48562548 -3.375 50.25 C-5.99093153 48.41884793 -6.34489455 47.34031634 -7.375 44.25 C-7.49610727 41.43187044 -7.56315045 38.63925304 -7.578125 35.8203125 C-7.58382507 34.992966 -7.58952515 34.16561951 -7.59539795 33.3132019 C-7.60484023 31.56314368 -7.61137887 29.81306773 -7.61523438 28.06298828 C-7.62493847 25.39193569 -7.65596785 22.72165325 -7.6875 20.05078125 C-7.69403058 18.34896289 -7.69928084 16.64713904 -7.703125 14.9453125 C-7.7154718 14.14932648 -7.7278186 13.35334045 -7.74053955 12.53323364 C-7.71677047 6.58737311 -6.82987601 0.50591674 0 0 Z M-0.375 7.25 C-3.56624845 12.03687268 -2.70826278 17.53171241 -2.69067383 23.12890625 C-2.68751091 25.2427105 -2.71099013 27.35511846 -2.73632812 29.46875 C-2.73860095 30.81249824 -2.73930469 32.15625023 -2.73828125 33.5 C-2.74126221 34.72203125 -2.74424316 35.9440625 -2.74731445 37.203125 C-2.64313354 40.25466121 -2.64313354 40.25466121 -0.85229492 42.171875 C-0.3647876 42.52765625 0.12271973 42.8834375 0.625 43.25 C4.1273688 39.7476312 2.92896254 34.53188586 2.94726562 29.796875 C2.94509033 29.05115234 2.94291504 28.30542969 2.94067383 27.53710938 C2.93751197 25.2586291 2.96097517 22.98144479 2.98632812 20.703125 C2.98860088 19.26041831 2.98930473 17.81770812 2.98828125 16.375 C2.99126221 15.05757813 2.99424316 13.74015625 2.99731445 12.3828125 C2.87445068 11.34898437 2.75158691 10.31515625 2.625 9.25 C1.635 8.59 0.645 7.93 -0.375 7.25 Z " fill="#223665" transform="translate(577.375,267.75)"/>
<path d="M0 0 C3.63 0 7.26 0 11 0 C14.40289904 4.53719872 14.39580171 7.13267437 14.25 12.5 C14.24484375 13.25925781 14.2396875 14.01851563 14.234375 14.80078125 C14.15556553 20.42580738 14.15556553 20.42580738 13.42480469 23.12304688 C12.77429551 25.07660836 12.77429551 25.07660836 14 27 C14.15175549 28.59262066 14.24900325 30.19064856 14.31640625 31.7890625 C14.37924805 33.20058594 14.37924805 33.20058594 14.44335938 34.640625 C14.48267578 35.62546875 14.52199219 36.6103125 14.5625 37.625 C14.60568359 38.61757813 14.64886719 39.61015625 14.69335938 40.6328125 C14.79961069 43.08839838 14.90164964 45.54408703 15 48 C13.02 48 11.04 48 9 48 C8.96261719 46.80761719 8.92523437 45.61523438 8.88671875 44.38671875 C8.82105968 42.820281 8.75461232 41.25387616 8.6875 39.6875 C8.66494141 38.90181641 8.64238281 38.11613281 8.61914062 37.30664062 C8.58369141 36.54931641 8.54824219 35.79199219 8.51171875 35.01171875 C8.48553467 34.31522217 8.45935059 33.61872559 8.43237305 32.90112305 C8.07295776 30.54027132 8.07295776 30.54027132 5 28 C5 34.6 5 41.2 5 48 C3.35 48 1.7 48 0 48 C0 32.16 0 16.32 0 0 Z M5 7 C5 11.62 5 16.24 5 21 C6.32 20.34 7.64 19.68 9 19 C9 15.7 9 12.4 9 9 C7.68 8.34 6.36 7.68 5 7 Z " fill="#223665" transform="translate(648,269)"/>
<path d="M0 0 C3.63 0 7.26 0 11 0 C14.40289904 4.53719872 14.39580171 7.13267437 14.25 12.5 C14.24484375 13.25925781 14.2396875 14.01851563 14.234375 14.80078125 C14.15556553 20.42580738 14.15556553 20.42580738 13.42480469 23.12304688 C12.77429551 25.07660836 12.77429551 25.07660836 14 27 C14.15175549 28.59262066 14.24900325 30.19064856 14.31640625 31.7890625 C14.37924805 33.20058594 14.37924805 33.20058594 14.44335938 34.640625 C14.48267578 35.62546875 14.52199219 36.6103125 14.5625 37.625 C14.60568359 38.61757813 14.64886719 39.61015625 14.69335938 40.6328125 C14.79961069 43.08839838 14.90164964 45.54408703 15 48 C13.02 48 11.04 48 9 48 C8.96261719 46.80761719 8.92523437 45.61523438 8.88671875 44.38671875 C8.82105968 42.820281 8.75461232 41.25387616 8.6875 39.6875 C8.66494141 38.90181641 8.64238281 38.11613281 8.61914062 37.30664062 C8.58369141 36.54931641 8.54824219 35.79199219 8.51171875 35.01171875 C8.48553467 34.31522217 8.45935059 33.61872559 8.43237305 32.90112305 C8.07295776 30.54027132 8.07295776 30.54027132 5 28 C5 34.6 5 41.2 5 48 C3.35 48 1.7 48 0 48 C0 32.16 0 16.32 0 0 Z M5 7 C5 11.62 5 16.24 5 21 C6.32 20.34 7.64 19.68 9 19 C9 15.7 9 12.4 9 9 C7.68 8.34 6.36 7.68 5 7 Z " fill="#223665" transform="translate(630,269)"/>
<path d="M0 0 C3.63 0 7.26 0 11 0 C14.40289904 4.53719872 14.39580171 7.13267437 14.25 12.5 C14.24484375 13.25925781 14.2396875 14.01851563 14.234375 14.80078125 C14.15556553 20.42580738 14.15556553 20.42580738 13.42480469 23.12304688 C12.77429551 25.07660836 12.77429551 25.07660836 14 27 C14.15175549 28.59262066 14.24900325 30.19064856 14.31640625 31.7890625 C14.37924805 33.20058594 14.37924805 33.20058594 14.44335938 34.640625 C14.48267578 35.62546875 14.52199219 36.6103125 14.5625 37.625 C14.60568359 38.61757813 14.64886719 39.61015625 14.69335938 40.6328125 C14.79961069 43.08839838 14.90164964 45.54408703 15 48 C13.02 48 11.04 48 9 48 C8.96261719 46.80761719 8.92523438 45.61523438 8.88671875 44.38671875 C8.82105968 42.820281 8.75461232 41.25387616 8.6875 39.6875 C8.66494141 38.90181641 8.64238281 38.11613281 8.61914062 37.30664062 C8.58369141 36.54931641 8.54824219 35.79199219 8.51171875 35.01171875 C8.48553467 34.31522217 8.45935059 33.61872559 8.43237305 32.90112305 C8.07295776 30.54027132 8.07295776 30.54027132 5 28 C5 34.6 5 41.2 5 48 C3.35 48 1.7 48 0 48 C0 32.16 0 16.32 0 0 Z M5 7 C5 11.62 5 16.24 5 21 C6.32 20.34 7.64 19.68 9 19 C9 15.7 9 12.4 9 9 C7.68 8.34 6.36 7.68 5 7 Z " fill="#223665" transform="translate(488,269)"/>
<path d="M0 0 C3.63 0 7.26 0 11 0 C15.42499385 4.42499385 15.16980457 8.06265201 15.203125 13.9921875 C15.20882507 14.77514191 15.21452515 15.55809631 15.22039795 16.36477661 C15.22983845 18.02067721 15.23637816 19.67659651 15.24023438 21.33251953 C15.24993752 23.85873366 15.28096782 26.38413308 15.3125 28.91015625 C15.31903075 30.52082851 15.32428094 32.13150658 15.328125 33.7421875 C15.3404718 34.49442596 15.3528186 35.24666443 15.36553955 36.021698 C15.34465446 40.9674689 14.56214508 44.43785492 11 48 C7.37 48 3.74 48 0 48 C0 32.16 0 16.32 0 0 Z M5 7 C5 18.22 5 29.44 5 41 C6.98 40.505 6.98 40.505 9 40 C11.28128029 35.43743942 10.18502621 29.07192821 10.1875 24.0625 C10.19974609 22.76119141 10.21199219 21.45988281 10.22460938 20.11914062 C10.22654297 18.87455078 10.22847656 17.62996094 10.23046875 16.34765625 C10.23457764 15.20304932 10.23868652 14.05844238 10.24291992 12.87915039 C10.21660147 9.80188724 10.21660147 9.80188724 8 7 C7.01 7 6.02 7 5 7 Z " fill="#223665" transform="translate(416,269)"/>
<path d="M0 0 C3.63 0 7.26 0 11 0 C15.42499385 4.42499385 15.16980457 8.06265201 15.203125 13.9921875 C15.20882507 14.77514191 15.21452515 15.55809631 15.22039795 16.36477661 C15.22983845 18.02067721 15.23637816 19.67659651 15.24023438 21.33251953 C15.24993752 23.85873366 15.28096782 26.38413308 15.3125 28.91015625 C15.31903075 30.52082851 15.32428094 32.13150658 15.328125 33.7421875 C15.3404718 34.49442596 15.3528186 35.24666443 15.36553955 36.021698 C15.34465446 40.9674689 14.56214508 44.43785492 11 48 C7.37 48 3.74 48 0 48 C0 32.16 0 16.32 0 0 Z M5 7 C5 18.22 5 29.44 5 41 C6.98 40.505 6.98 40.505 9 40 C11.28128029 35.43743942 10.18502621 29.07192821 10.1875 24.0625 C10.19974609 22.76119141 10.21199219 21.45988281 10.22460938 20.11914062 C10.22654297 18.87455078 10.22847656 17.62996094 10.23046875 16.34765625 C10.23457764 15.20304932 10.23868652 14.05844238 10.24291992 12.87915039 C10.21660147 9.80188724 10.21660147 9.80188724 8 7 C7.01 7 6.02 7 5 7 Z " fill="#223665" transform="translate(391,269)"/>
<path d="M0 0 C3.63 0 7.26 0 11 0 C15.42499385 4.42499385 15.16980457 8.06265201 15.203125 13.9921875 C15.20882507 14.77514191 15.21452515 15.55809631 15.22039795 16.36477661 C15.22983845 18.02067721 15.23637816 19.67659651 15.24023438 21.33251953 C15.24993752 23.85873366 15.28096782 26.38413308 15.3125 28.91015625 C15.31903075 30.52082851 15.32428094 32.13150658 15.328125 33.7421875 C15.3404718 34.49442596 15.3528186 35.24666443 15.36553955 36.021698 C15.34465446 40.9674689 14.56214508 44.43785492 11 48 C7.37 48 3.74 48 0 48 C0 32.16 0 16.32 0 0 Z M5 7 C5 18.22 5 29.44 5 41 C6.98 40.505 6.98 40.505 9 40 C11.28128029 35.43743942 10.18502621 29.07192821 10.1875 24.0625 C10.19974609 22.76119141 10.21199219 21.45988281 10.22460938 20.11914062 C10.22654297 18.87455078 10.22847656 17.62996094 10.23046875 16.34765625 C10.23457764 15.20304932 10.23868652 14.05844238 10.24291992 12.87915039 C10.21660147 9.80188724 10.21660147 9.80188724 8 7 C7.01 7 6.02 7 5 7 Z " fill="#223665" transform="translate(355,269)"/>
<path d="M0 0 C3.63 0 7.26 0 11 0 C14.40289904 4.53719872 14.39580171 7.13267437 14.25 12.5 C14.24484375 13.25925781 14.2396875 14.01851563 14.234375 14.80078125 C14.15556553 20.42580738 14.15556553 20.42580738 13.42480469 23.12304688 C12.77429551 25.07660836 12.77429551 25.07660836 14 27 C14.15175549 28.59262066 14.24900325 30.19064856 14.31640625 31.7890625 C14.37924805 33.20058594 14.37924805 33.20058594 14.44335938 34.640625 C14.48267578 35.62546875 14.52199219 36.6103125 14.5625 37.625 C14.60568359 38.61757813 14.64886719 39.61015625 14.69335938 40.6328125 C14.79961069 43.08839838 14.90164964 45.54408703 15 48 C13.02 48 11.04 48 9 48 C8.96261719 46.80761719 8.92523438 45.61523438 8.88671875 44.38671875 C8.82105968 42.820281 8.75461232 41.25387616 8.6875 39.6875 C8.66494141 38.90181641 8.64238281 38.11613281 8.61914062 37.30664062 C8.58369141 36.54931641 8.54824219 35.79199219 8.51171875 35.01171875 C8.48553467 34.31522217 8.45935059 33.61872559 8.43237305 32.90112305 C8.07295776 30.54027132 8.07295776 30.54027132 5 28 C5 34.6 5 41.2 5 48 C3.35 48 1.7 48 0 48 C0 32.16 0 16.32 0 0 Z M5 7 C5 11.62 5 16.24 5 21 C6.32 20.34 7.64 19.68 9 19 C9 15.7 9 12.4 9 9 C7.68 8.34 6.36 7.68 5 7 Z " fill="#223665" transform="translate(329,269)"/>
<path d="M0 0 C3.625 0.3125 3.625 0.3125 5.5 2.125 C7.35841709 5.73858879 7.73951481 8.49485929 7.6875 12.5 C7.67847656 13.40105469 7.66945313 14.30210937 7.66015625 15.23046875 C7.64855469 15.91753906 7.63695312 16.60460937 7.625 17.3125 C5.975 17.3125 4.325 17.3125 2.625 17.3125 C1.965 14.3425 1.305 11.3725 0.625 8.3125 C-2.20759575 11.14509575 -1.63338261 13.0394466 -1.640625 17 C-1.64253845 17.65830811 -1.6444519 18.31661621 -1.64642334 18.99487305 C-1.6477845 20.3868854 -1.64409283 21.77891047 -1.63574219 23.17089844 C-1.625041 25.30432589 -1.63563906 27.43691131 -1.6484375 29.5703125 C-1.64711589 30.92187686 -1.64455347 32.2734407 -1.640625 33.625 C-1.63836914 34.85863281 -1.63611328 36.09226562 -1.63378906 37.36328125 C-1.68269767 40.43319578 -1.68269767 40.43319578 0.625 42.3125 C1.90946919 39.74356162 1.95477144 37.54673663 2.1875 34.6875 C2.27128906 33.68460937 2.35507812 32.68171875 2.44140625 31.6484375 C2.50199219 30.87757813 2.56257813 30.10671875 2.625 29.3125 C1.635 29.3125 0.645 29.3125 -0.375 29.3125 C-0.375 27.0025 -0.375 24.6925 -0.375 22.3125 C2.265 22.3125 4.905 22.3125 7.625 22.3125 C7.71267555 25.68733413 7.76561628 29.06187215 7.8125 32.4375 C7.85020508 33.86449219 7.85020508 33.86449219 7.88867188 35.3203125 C7.94546022 40.77199356 7.69600604 44.59382574 4.625 49.3125 C3.625 50.3125 3.625 50.3125 0.25 50.5625 C-3.375 50.3125 -3.375 50.3125 -5.25 49 C-7.95598243 44.94102635 -7.55326338 40.56298291 -7.578125 35.8828125 C-7.58382507 35.055466 -7.58952515 34.22811951 -7.59539795 33.3757019 C-7.60484023 31.62564368 -7.61137887 29.87556773 -7.61523438 28.12548828 C-7.62493847 25.45443569 -7.65596785 22.78415325 -7.6875 20.11328125 C-7.69403058 18.41146289 -7.69928084 16.70963904 -7.703125 15.0078125 C-7.7154718 14.21182648 -7.7278186 13.41584045 -7.74053955 12.59573364 C-7.71665376 6.62067967 -6.81251 0.63078796 0 0 Z " fill="#223665" transform="translate(300.375,267.6875)"/>
<path d="M0 0 C2.64 0 5.28 0 8 0 C8.57566122 5.38878611 9.14509539 10.77818218 9.70898438 16.16821289 C9.90132007 17.99846778 10.09530124 19.82855058 10.29101562 21.65844727 C10.57343442 24.30180074 10.84976023 26.94573426 11.125 29.58984375 C11.21249512 30.39646957 11.29999023 31.2030954 11.39013672 32.03416443 C11.93930164 37.38386086 12.07518617 42.62183942 12 48 C10.35 48 8.7 48 7 48 C6.67 45.03 6.34 42.06 6 39 C4.35 39 2.7 39 1 39 C0.67 41.97 0.34 44.94 0 48 C-1.65 48 -3.3 48 -5 48 C-4.50632317 37.34338976 -3.54528891 26.73896898 -2.5 16.125 C-2.43428802 15.44435486 -2.36857605 14.76370972 -2.3008728 14.06243896 C-2.11119413 12.10630224 -1.91509372 10.15079148 -1.71875 8.1953125 C-1.60466797 7.05078613 -1.49058594 5.90625977 -1.37304688 4.72705078 C-1 2 -1 2 0 0 Z M3 14 C2.10395632 20.04829486 1.88730557 25.8894576 2 32 C2.99 32 3.98 32 5 32 C4.67 26.06 4.34 20.12 4 14 C3.67 14 3.34 14 3 14 Z " fill="#223665" transform="translate(544,269)"/>
<path d="M0 0 C2.64 0 5.28 0 8 0 C8.57566122 5.38878611 9.14509539 10.77818218 9.70898438 16.16821289 C9.90132007 17.99846778 10.09530124 19.82855058 10.29101562 21.65844727 C10.57343442 24.30180074 10.84976023 26.94573426 11.125 29.58984375 C11.21249512 30.39646957 11.29999023 31.2030954 11.39013672 32.03416443 C11.93930164 37.38386086 12.07518617 42.62183942 12 48 C10.35 48 8.7 48 7 48 C6.67 45.03 6.34 42.06 6 39 C4.35 39 2.7 39 1 39 C0.67 41.97 0.34 44.94 0 48 C-1.65 48 -3.3 48 -5 48 C-4.50632317 37.34338976 -3.54528891 26.73896898 -2.5 16.125 C-2.43428802 15.44435486 -2.36857605 14.76370972 -2.3008728 14.06243896 C-2.11119413 12.10630224 -1.91509372 10.15079148 -1.71875 8.1953125 C-1.60466797 7.05078613 -1.49058594 5.90625977 -1.37304688 4.72705078 C-1 2 -1 2 0 0 Z M3 14 C2.10395632 20.04829486 1.88730557 25.8894576 2 32 C2.99 32 3.98 32 5 32 C4.67 26.06 4.34 20.12 4 14 C3.67 14 3.34 14 3 14 Z " fill="#223665" transform="translate(509,269)"/>
<path d="M0 0 C2.64 0 5.28 0 8 0 C8.57566122 5.38878611 9.14509539 10.77818218 9.70898438 16.16821289 C9.90132007 17.99846778 10.09530124 19.82855058 10.29101562 21.65844727 C10.57343442 24.30180074 10.84976023 26.94573426 11.125 29.58984375 C11.21249512 30.39646957 11.29999023 31.2030954 11.39013672 32.03416443 C11.93930164 37.38386086 12.07518617 42.62183942 12 48 C10.35 48 8.7 48 7 48 C6.67 45.03 6.34 42.06 6 39 C4.35 39 2.7 39 1 39 C0.67 41.97 0.34 44.94 0 48 C-1.65 48 -3.3 48 -5 48 C-4.50632317 37.34338976 -3.54528891 26.73896898 -2.5 16.125 C-2.43428802 15.44435486 -2.36857605 14.76370972 -2.3008728 14.06243896 C-2.11119413 12.10630224 -1.91509372 10.15079148 -1.71875 8.1953125 C-1.60466797 7.05078613 -1.49058594 5.90625977 -1.37304688 4.72705078 C-1 2 -1 2 0 0 Z M3 14 C2.10395632 20.04829486 1.88730557 25.8894576 2 32 C2.99 32 3.98 32 5 32 C4.67 26.06 4.34 20.12 4 14 C3.67 14 3.34 14 3 14 Z " fill="#223665" transform="translate(376,269)"/>
<path d="M0 0 C13 0 13 0 16.28125 1.87109375 C18.72863194 6.32644133 18.65867951 10.06048919 18.5 15.0625 C18.50386719 16.40924805 18.50386719 16.40924805 18.5078125 17.78320312 C18.45299672 21.46956445 18.38326655 24.23463539 16.71875 27.55859375 C12.06515878 31.46126457 5.70085618 30 0 30 C0 20.1 0 10.2 0 0 Z " fill="#2A3D6A" transform="translate(364,119)"/>
<path d="M0 0 C1.65 0 3.3 0 5 0 C5.01981934 1.17095215 5.03963867 2.3419043 5.06005859 3.54833984 C5.13600081 7.88336074 5.2247352 12.21804095 5.31738281 16.55273438 C5.35571977 18.43059576 5.39056427 20.30853176 5.421875 22.18652344 C5.46742363 24.88243321 5.52543375 27.57782712 5.5859375 30.2734375 C5.59748871 31.11619232 5.60903992 31.95894714 5.62094116 32.82723999 C5.54193181 37.39020957 5.54193181 37.39020957 8 41 C10.13086442 38.86913558 9.25960872 34.10833065 9.31640625 31.15234375 C9.33718735 30.2659169 9.35796844 29.37949005 9.37937927 28.46620178 C9.444974 25.623383 9.50380552 22.78046883 9.5625 19.9375 C9.6056758 18.01496394 9.64928978 16.09243766 9.69335938 14.16992188 C9.80066543 9.44671332 9.90190451 4.72340847 10 0 C11.65 0 13.3 0 15 0 C15.04944073 6.19302201 15.08573905 12.38592909 15.10986328 18.57910156 C15.11992034 20.68589275 15.13356768 22.79266999 15.15087891 24.89941406 C15.17514 27.92776941 15.18648608 30.95594019 15.1953125 33.984375 C15.20563507 34.92617615 15.21595764 35.86797729 15.22659302 36.83831787 C15.22674408 37.71892883 15.22689514 38.59953979 15.22705078 39.50683594 C15.231492 40.27960876 15.23593323 41.05238159 15.24050903 41.84857178 C14.96509668 44.31222105 14.30778181 45.90238969 13 48 C9.95016004 49.52491998 7.3576631 49.23562548 4 49 C1.38406847 47.16884793 1.03010545 46.09031634 0 43 C-0.08610514 41.57281363 -0.11771828 40.14193352 -0.11352539 38.7121582 C-0.11344986 37.85149246 -0.11337433 36.99082672 -0.11329651 36.1040802 C-0.10813522 35.17899155 -0.10297394 34.25390289 -0.09765625 33.30078125 C-0.0962413 32.35059616 -0.09482635 31.40041107 -0.09336853 30.4214325 C-0.08776875 27.38508971 -0.07521632 24.34882052 -0.0625 21.3125 C-0.05748497 19.25455836 -0.05292207 17.19661556 -0.04882812 15.13867188 C-0.0377994 10.09241954 -0.02053493 5.04622225 0 0 Z " fill="#223665" transform="translate(310,269)"/>
<path d="M0 0 C3.625 0.3125 3.625 0.3125 5.5 2.125 C7.35841709 5.73858879 7.73951481 8.49485929 7.6875 12.5 C7.67847656 13.40105469 7.66945313 14.30210937 7.66015625 15.23046875 C7.64855469 15.91753906 7.63695312 16.60460937 7.625 17.3125 C5.975 17.3125 4.325 17.3125 2.625 17.3125 C1.965 14.3425 1.305 11.3725 0.625 8.3125 C-2.20759575 11.14509575 -1.63338261 13.0394466 -1.640625 17 C-1.64253845 17.65830811 -1.6444519 18.31661621 -1.64642334 18.99487305 C-1.6477845 20.3868854 -1.64409283 21.77891047 -1.63574219 23.17089844 C-1.625041 25.30432589 -1.63563906 27.43691131 -1.6484375 29.5703125 C-1.64711589 30.92187686 -1.64455347 32.2734407 -1.640625 33.625 C-1.63836914 34.85863281 -1.63611328 36.09226562 -1.63378906 37.36328125 C-1.68269767 40.43319578 -1.68269767 40.43319578 0.625 42.3125 C1.77314997 40.01620006 1.93269809 38.23551914 2.1875 35.6875 C2.27128906 34.87023437 2.35507812 34.05296875 2.44140625 33.2109375 C2.50199219 32.58445312 2.56257812 31.95796875 2.625 31.3125 C4.275 31.3125 5.925 31.3125 7.625 31.3125 C8.1814472 44.04895814 8.1814472 44.04895814 4.625 49.3125 C3.625 50.3125 3.625 50.3125 0.25 50.5625 C-3.375 50.3125 -3.375 50.3125 -5.25 49 C-7.95598243 44.94102635 -7.55326338 40.56298291 -7.578125 35.8828125 C-7.58382507 35.055466 -7.58952515 34.22811951 -7.59539795 33.3757019 C-7.60484023 31.62564368 -7.61137887 29.87556773 -7.61523438 28.12548828 C-7.62493847 25.45443569 -7.65596785 22.78415325 -7.6875 20.11328125 C-7.69403058 18.41146289 -7.69928084 16.70963904 -7.703125 15.0078125 C-7.7154718 14.21182648 -7.7278186 13.41584045 -7.74053955 12.59573364 C-7.71665376 6.62067967 -6.81251 0.63078796 0 0 Z " fill="#223665" transform="translate(688.375,267.6875)"/>
<path d="M0 0 C3.625 0.3125 3.625 0.3125 5.5 2.125 C7.35841709 5.73858879 7.73951481 8.49485929 7.6875 12.5 C7.67847656 13.40105469 7.66945313 14.30210937 7.66015625 15.23046875 C7.64855469 15.91753906 7.63695312 16.60460937 7.625 17.3125 C5.975 17.3125 4.325 17.3125 2.625 17.3125 C1.965 14.3425 1.305 11.3725 0.625 8.3125 C-2.20759575 11.14509575 -1.63338261 13.0394466 -1.640625 17 C-1.64253845 17.65830811 -1.6444519 18.31661621 -1.64642334 18.99487305 C-1.6477845 20.3868854 -1.64409283 21.77891047 -1.63574219 23.17089844 C-1.625041 25.30432589 -1.63563906 27.43691131 -1.6484375 29.5703125 C-1.64711589 30.92187686 -1.64455347 32.2734407 -1.640625 33.625 C-1.63836914 34.85863281 -1.63611328 36.09226562 -1.63378906 37.36328125 C-1.68269767 40.43319578 -1.68269767 40.43319578 0.625 42.3125 C1.77314997 40.01620006 1.93269809 38.23551914 2.1875 35.6875 C2.27128906 34.87023437 2.35507812 34.05296875 2.44140625 33.2109375 C2.50199219 32.58445312 2.56257812 31.95796875 2.625 31.3125 C4.275 31.3125 5.925 31.3125 7.625 31.3125 C8.1814472 44.04895814 8.1814472 44.04895814 4.625 49.3125 C3.625 50.3125 3.625 50.3125 0.25 50.5625 C-3.375 50.3125 -3.375 50.3125 -5.25 49 C-7.95598243 44.94102635 -7.55326338 40.56298291 -7.578125 35.8828125 C-7.58382507 35.055466 -7.58952515 34.22811951 -7.59539795 33.3757019 C-7.60484023 31.62564368 -7.61137887 29.87556773 -7.61523438 28.12548828 C-7.62493847 25.45443569 -7.65596785 22.78415325 -7.6875 20.11328125 C-7.69403058 18.41146289 -7.69928084 16.70963904 -7.703125 15.0078125 C-7.7154718 14.21182648 -7.7278186 13.41584045 -7.74053955 12.59573364 C-7.71665376 6.62067967 -6.81251 0.63078796 0 0 Z " fill="#223665" transform="translate(601.375,267.6875)"/>
<path d="M0 0 C3.625 0.375 3.625 0.375 5.5625 2.3125 C6.98196696 6.40390478 6.8771379 10.0886557 6.625 14.375 C4.975 14.375 3.325 14.375 1.625 14.375 C1.295 12.395 0.965 10.415 0.625 8.375 C-0.035 9.035 -0.695 9.695 -1.375 10.375 C-0.64234345 16.05308827 0.94151571 20.09108349 3.75 25.0625 C7.22631626 31.69214959 7.81249079 38.00151066 6.625 45.375 C5.33984375 48.24609375 5.33984375 48.24609375 3.625 50.375 C0.87608664 51.31716789 -1.57301278 51.0754968 -4.375 50.375 C-6.90223481 48.00571737 -7.31884787 46.23034065 -7.54296875 42.81640625 C-7.56062434 40.32696797 -7.50531826 37.86070007 -7.375 35.375 C-5.725 35.375 -4.075 35.375 -2.375 35.375 C-2.045 37.685 -1.715 39.995 -1.375 42.375 C-0.385 41.88 -0.385 41.88 0.625 41.375 C0.40198499 34.4615347 -1.15373075 30.3783851 -5 24.63671875 C-7.42678845 20.64492751 -7.55503791 17.06082834 -7.625 12.4375 C-7.65078125 11.41785156 -7.6765625 10.39820313 -7.703125 9.34765625 C-7.12583998 4.11772883 -5.26466461 0.58496273 0 0 Z " fill="#223665" transform="translate(267.375,267.625)"/>
<path d="M0 0 C2.206875 -0.061875 4.41375 -0.12375 6.6875 -0.1875 C8.54955078 -0.23970703 8.54955078 -0.23970703 10.44921875 -0.29296875 C14.2457708 0.02027812 16.01467371 0.69242347 19 3 C21.4826404 6.7239606 21.52996922 9.68686587 21 14 C19.04901037 19.26767201 19.04901037 19.26767201 16.34375 21.15625 C11.25195112 22.9892976 5.30928572 22.09832011 0 22 C0 14.74 0 7.48 0 0 Z " fill="#283A68" transform="translate(313,46)"/>
<path d="M0 0 C1.98 0 3.96 0 6 0 C6 23.1 6 46.2 6 70 C4.02 70 2.04 70 0 70 C0 46.9 0 23.8 0 0 Z " fill="#FFFFFF" transform="translate(494,113)"/>
<path d="M0 0 C4.29 0 8.58 0 13 0 C13 2.31 13 4.62 13 7 C10.36 7 7.72 7 5 7 C5 11.29 5 15.58 5 20 C7.31 20 9.62 20 12 20 C12 22.31 12 24.62 12 27 C9.69 27 7.38 27 5 27 C5 31.62 5 36.24 5 41 C7.64 41 10.28 41 13 41 C13 43.31 13 45.62 13 48 C8.71 48 4.42 48 0 48 C0 32.16 0 16.32 0 0 Z " fill="#223665" transform="translate(665,269)"/>
<path d="M0 0 C4.29 0 8.58 0 13 0 C13 2.31 13 4.62 13 7 C10.36 7 7.72 7 5 7 C5 11.29 5 15.58 5 20 C7.31 20 9.62 20 12 20 C12 22.31 12 24.62 12 27 C9.69 27 7.38 27 5 27 C5 31.62 5 36.24 5 41 C7.64 41 10.28 41 13 41 C13 43.31 13 45.62 13 48 C8.71 48 4.42 48 0 48 C0 32.16 0 16.32 0 0 Z " fill="#223665" transform="translate(434,269)"/>
<path d="M0 0 C4.29 0 8.58 0 13 0 C13 2.31 13 4.62 13 7 C10.36 7 7.72 7 5 7 C5 11.29 5 15.58 5 20 C7.31 20 9.62 20 12 20 C12 22.31 12 24.62 12 27 C9.69 27 7.38 27 5 27 C5 31.62 5 36.24 5 41 C7.64 41 10.28 41 13 41 C13 43.31 13 45.62 13 48 C8.71 48 4.42 48 0 48 C0 32.16 0 16.32 0 0 Z " fill="#223665" transform="translate(278,269)"/>
<path d="M0 0 C1.32 0 2.64 0 4 0 C4 17.49 4 34.98 4 53 C11.26 53 18.52 53 26 53 C26 54.65 26 56.3 26 58 C17.42 58 8.84 58 0 58 C0 38.86 0 19.72 0 0 Z " fill="#FEFEFE" transform="translate(348,41)"/>
<path d="M0 0 C0.33 0 0.66 0 1 0 C1.96355198 3.93624126 2.91985918 7.87421004 3.875 11.8125 C4.14441406 12.91271484 4.41382813 14.01292969 4.69140625 15.14648438 C6.36582651 22.06878277 7.79204673 28.98097057 9 36 C3.39 36 -2.22 36 -8 36 C-7.3676129 30.94090319 -6.71586054 26.27448977 -5.625 21.34765625 C-5.23054687 19.56584961 -5.23054687 19.56584961 -4.828125 17.74804688 C-4.55484375 16.53181641 -4.2815625 15.31558594 -4 14.0625 C-3.72671875 12.81919922 -3.4534375 11.57589844 -3.171875 10.29492188 C-2.90890625 9.11607422 -2.6459375 7.93722656 -2.375 6.72265625 C-2.01535156 5.11015991 -2.01535156 5.11015991 -1.6484375 3.46508789 C-1 1 -1 1 0 0 Z " fill="#2A3C69" transform="translate(534,126)"/>
<path d="M0 0 C4.95 0 9.9 0 15 0 C15 2.31 15 4.62 15 7 C13.35 7 11.7 7 10 7 C10 20.53 10 34.06 10 48 C8.35 48 6.7 48 5 48 C5 34.47 5 20.94 5 7 C3.35 7 1.7 7 0 7 C0 4.69 0 2.38 0 0 Z " fill="#223665" transform="translate(697,269)"/>
<path d="M0 0 C4.95 0 9.9 0 15 0 C15 2.31 15 4.62 15 7 C13.35 7 11.7 7 10 7 C10 20.53 10 34.06 10 48 C8.35 48 6.7 48 5 48 C5 34.47 5 20.94 5 7 C3.35 7 1.7 7 0 7 C0 4.69 0 2.38 0 0 Z " fill="#223665" transform="translate(470,269)"/>
<path d="M0 0 C1.65 0 3.3 0 5 0 C5 13.53 5 27.06 5 41 C7.64 41 10.28 41 13 41 C13 43.31 13 45.62 13 48 C8.71 48 4.42 48 0 48 C0 32.16 0 16.32 0 0 Z " fill="#223665" transform="translate(450,269)"/>
<path d="M0 0 C1.65 0 3.3 0 5 0 C5.07433795 5.87155408 5.12869117 11.74283219 5.16479492 17.61474609 C5.17985098 19.61088841 5.20030027 21.60699781 5.22631836 23.60302734 C5.26284161 26.47762185 5.27975837 29.35177772 5.29296875 32.2265625 C5.30845261 33.11429352 5.32393646 34.00202454 5.33988953 34.91665649 C5.34127661 40.06126251 4.79048978 43.50045593 2 48 C-0.31 48 -2.62 48 -5 48 C-5 45.69 -5 43.38 -5 41 C-3.515 40.505 -3.515 40.505 -2 40 C-0.36342246 36.72684491 -0.7569193 33.09377769 -0.68359375 29.4921875 C-0.66281265 28.65156769 -0.64203156 27.81094788 -0.62062073 26.94485474 C-0.55514561 24.25498765 -0.4962498 21.56502157 -0.4375 18.875 C-0.39431284 17.05337511 -0.35069848 15.23176029 -0.30664062 13.41015625 C-0.19946632 8.94020606 -0.09819315 4.47015614 0 0 Z " fill="#223665" transform="translate(562,269)"/>
<path d="M0 0 C1.65 0 3.3 0 5 0 C5 15.84 5 31.68 5 48 C3.35 48 1.7 48 0 48 C0 32.16 0 16.32 0 0 Z " fill="#223665" transform="translate(347,269)"/>
<path d="M0 0 C1.32 0 2.64 0 4 0 C4 19.14 4 38.28 4 58 C2.68 58 1.36 58 0 58 C0 38.86 0 19.72 0 0 Z " fill="#FFFFFF" transform="translate(522,41)"/>
<path d="M0 0 C1.32 0 2.64 0 4 0 C4 19.14 4 38.28 4 58 C2.68 58 1.36 58 0 58 C0 38.86 0 19.72 0 0 Z " fill="#FFFFFF" transform="translate(381,41)"/>
<path d="M0 0 C2.24912624 2.24912624 2.51429624 3.3291702 3.25390625 6.359375 C3.46853516 7.22820313 3.68316406 8.09703125 3.90429688 8.9921875 C4.12150391 9.90226562 4.33871094 10.81234375 4.5625 11.75 C4.78357422 12.64460938 5.00464844 13.53921875 5.23242188 14.4609375 C6.33525891 18.97890434 7.2331419 23.39885141 8 28 C3.05 28 -1.9 28 -7 28 C-6.37804537 24.26827221 -5.75174675 20.75171374 -4.84375 17.109375 C-4.51697266 15.79839844 -4.51697266 15.79839844 -4.18359375 14.4609375 C-3.95800781 13.56632812 -3.73242188 12.67171875 -3.5 11.75 C-3.27441406 10.83992188 -3.04882812 9.92984375 -2.81640625 8.9921875 C-2.59855469 8.12335937 -2.38070313 7.25453125 -2.15625 6.359375 C-1.95837891 5.57014648 -1.76050781 4.78091797 -1.55664062 3.96777344 C-1 2 -1 2 0 0 Z " fill="#2A3C69" transform="translate(453,48)"/>
<path d="M0 0 C2.24912624 2.24912624 2.51429624 3.3291702 3.25390625 6.359375 C3.46853516 7.22820313 3.68316406 8.09703125 3.90429688 8.9921875 C4.12150391 9.90226562 4.33871094 10.81234375 4.5625 11.75 C4.78357422 12.64460938 5.00464844 13.53921875 5.23242188 14.4609375 C6.33525891 18.97890434 7.2331419 23.39885141 8 28 C3.05 28 -1.9 28 -7 28 C-6.37804537 24.26827221 -5.75174675 20.75171374 -4.84375 17.109375 C-4.51697266 15.79839844 -4.51697266 15.79839844 -4.18359375 14.4609375 C-3.95800781 13.56632812 -3.73242188 12.67171875 -3.5 11.75 C-3.27441406 10.83992188 -3.04882812 9.92984375 -2.81640625 8.9921875 C-2.59855469 8.12335937 -2.38070313 7.25453125 -2.15625 6.359375 C-1.95837891 5.57014648 -1.76050781 4.78091797 -1.55664062 3.96777344 C-1 2 -1 2 0 0 Z " fill="#2A3C69" transform="translate(283,48)"/>
</svg>
