<?xml version="1.0" encoding="UTF-8"?>
<svg version="1.1" xmlns="http://www.w3.org/2000/svg" width="1875" height="1625">
<path d="M0 0 C0.66 0 1.32 0 2 0 C2.3717334 0.66829834 2.7434668 1.33659668 3.12646484 2.02514648 C12.4658349 18.80688534 12.4658349 18.80688534 22.11010742 35.4140625 C25.85224409 41.72671477 29.52381678 48.07903766 33.1875 54.4375 C33.82550537 55.54472412 34.46351074 56.65194824 35.12084961 57.79272461 C36.42889477 60.06337068 37.73675448 62.33412358 39.04443359 64.60498047 C42.19332054 70.0716998 45.34683264 75.53574887 48.5 81 C49.7500235 83.16665311 51.00002347 85.33331979 52.25 87.5 C52.86875 88.5725 53.4875 89.645 54.125 90.75 C116 198 177.875 305.25 899.75 1556.5 C900.3689917 1557.57290283 900.9879834 1558.64580566 901.62573242 1559.7512207 C902.8733474 1561.91378583 904.12090616 1564.07638339 905.3684082 1566.23901367 C908.52943449 1571.71870371 911.69149309 1577.19779358 914.85546875 1582.67578125 C917.97415481 1588.07565153 921.08858028 1593.47796252 924.20117188 1598.88134766 C925.99999856 1601.9999975 927.80449259 1605.11532062 929.609375 1608.23046875 C930.71895904 1610.15352523 931.82834434 1612.07669641 932.9375 1614 C933.45207764 1614.88469971 933.96665527 1615.76939941 934.49682617 1616.6809082 C934.96064697 1617.4874585 935.42446777 1618.29400879 935.90234375 1619.125 C936.30960693 1619.82882812 936.71687012 1620.53265625 937.13647461 1621.2578125 C938 1623 938 1623 938 1625 C319.25 1625 -299.5 1625 -937 1625 C-935.60210955 1621.50527389 -934.28283805 1618.55006512 -932.453125 1615.32421875 C-931.69165161 1613.97807495 -931.69165161 1613.97807495 -930.91479492 1612.60473633 C-930.09072144 1611.16070435 -930.09072144 1611.16070435 -929.25 1609.6875 C-928.67290283 1608.67131592 -928.09580566 1607.65513184 -927.5012207 1606.6081543 C-922.87474475 1598.48295661 -918.17017856 1590.4043584 -913.44433594 1582.33666992 C-908.91014131 1574.58753438 -904.44422786 1566.8008922 -900 1559 C-894.48753141 1549.32509216 -888.91575301 1539.68717637 -883.2890625 1530.078125 C-878.80833854 1522.4142623 -874.39493248 1514.71321165 -870 1507 C-864.48736165 1497.32518781 -858.91575433 1487.68717863 -853.2890625 1478.078125 C-848.80833854 1470.4142623 -844.39493248 1462.71321165 -840 1455 C-834.48736165 1445.32518781 -828.91575433 1435.68717863 -823.2890625 1426.078125 C-818.80833854 1418.4142623 -814.39493248 1410.71321165 -810 1403 C-804.48736165 1393.32518781 -798.91575433 1383.68717863 -793.2890625 1374.078125 C-788.80833854 1366.4142623 -784.39493248 1358.71321165 -780 1351 C-774.48736165 1341.32518781 -768.91575433 1331.68717863 -763.2890625 1322.078125 C-758.80833854 1314.4142623 -754.39493248 1306.71321165 -750 1299 C-744.48736165 1289.32518781 -738.91575433 1279.68717863 -733.2890625 1270.078125 C-728.80833854 1262.4142623 -724.39493248 1254.71321165 -720 1247 C-714.48736165 1237.32518781 -708.91575433 1227.68717863 -703.2890625 1218.078125 C-698.80833854 1210.4142623 -694.39493248 1202.71321165 -690 1195 C-684.48736165 1185.32518781 -678.91575433 1175.68717863 -673.2890625 1166.078125 C-668.80833854 1158.4142623 -664.39493248 1150.71321165 -660 1143 C-654.48736165 1133.32518781 -648.91575433 1123.68717863 -643.2890625 1114.078125 C-638.80833854 1106.4142623 -634.39493248 1098.71321165 -630 1091 C-624.48736165 1081.32518781 -618.91575433 1071.68717863 -613.2890625 1062.078125 C-608.80833854 1054.4142623 -604.39493248 1046.71321165 -600 1039 C-594.48736165 1029.32518781 -588.91575433 1019.68717863 -583.2890625 1010.078125 C-578.80833854 1002.4142623 -574.39493248 994.71321165 -570 987 C-564.48736165 977.32518781 -558.91575433 967.68717863 -553.2890625 958.078125 C-548.80833854 950.4142623 -544.39493248 942.71321165 -540 935 C-534.48736165 925.32518781 -528.91575433 915.68717863 -523.2890625 906.078125 C-518.80833854 898.4142623 -514.39493248 890.71321165 -510 883 C-505.04621177 874.30598314 -500.05621631 865.63502771 -495 857 C-489.9681021 848.4048271 -484.99610876 839.77687778 -480.0625 831.125 C-473.03396493 818.79974804 -465.95759566 806.50277933 -458.85888672 794.21777344 C-455.73675395 788.81329355 -452.61858796 783.40652588 -449.5 778 C-448.25001878 775.8333225 -447.00001879 773.66665583 -445.75 771.5 C-445.13125 770.4275 -444.5125 769.355 -443.875 768.25 C-382 661 -320.125 553.75 -33.25 56.5 C-32.3209082 54.88943726 -32.3209082 54.88943726 -31.37304688 53.24633789 C-30.129877 51.09169376 -28.88639025 48.93723243 -27.64257812 46.78295898 C-24.75016853 41.77245879 -21.86064773 36.76037365 -18.98303223 31.74136353 C-17.97451686 29.98271251 -16.9649523 28.22466791 -15.95507812 26.46679688 C-14.69649482 24.27527769 -13.43983013 22.08265496 -12.18554688 19.88867188 C-9.2583895 14.79639922 -6.276282 9.74223054 -3.1875 4.74609375 C-2.62417969 3.83400146 -2.06085937 2.92190918 -1.48046875 1.98217773 C-0.74763672 1.00099976 -0.74763672 1.00099976 0 0 Z " fill="#E20613" transform="translate(937,0)"/>
<path d="M0 0 C0.68359589 -0.00511093 1.36719177 -0.01022186 2.07150269 -0.01548767 C4.32062653 -0.02933406 6.56944224 -0.02843073 8.81860352 -0.02612305 C10.38892225 -0.03001262 11.95923994 -0.03434783 13.52955627 -0.03910828 C16.81710219 -0.04655976 20.1045407 -0.04628695 23.39208984 -0.04101562 C27.59640801 -0.03522147 31.80028557 -0.05215559 36.00453091 -0.0753603 C39.24655205 -0.09012122 42.48846764 -0.09096616 45.73051643 -0.08785057 C47.28020157 -0.08836257 48.82989281 -0.09357746 50.37954521 -0.10366249 C52.55019308 -0.11605624 54.71998986 -0.10921864 56.890625 -0.09765625 C58.73997902 -0.09860039 58.73997902 -0.09860039 60.62669373 -0.0995636 C65.47378635 0.4365636 68.75337566 2.11991335 72.32250977 5.3996582 C76.11763561 11.86542816 75.05187522 19.17270424 73.70210266 26.25653076 C73.47204236 27.54763237 73.47204236 27.54763237 73.23733437 28.86481684 C72.72220532 31.73780503 72.1889967 34.60712829 71.65576172 37.47680664 C71.27896348 39.55659652 70.903286 41.63658972 70.52863407 43.71676731 C69.50008802 49.40903026 68.45570398 55.09828798 67.40863562 60.78716874 C66.29006321 66.87997743 65.18614508 72.9754417 64.08047485 79.07060242 C62.17487811 89.56397896 60.26005158 100.05563177 58.33859253 110.54611206 C56.32207735 121.55572755 54.31090084 132.56629663 52.30667114 143.57815552 C52.18177398 144.26435966 52.05687681 144.9505638 51.92819489 145.65756201 C51.29535493 149.13462289 50.66260388 152.61169994 50.02988398 156.08878267 C45.16866975 182.80218987 40.29144909 209.51265645 35.40743732 236.2219038 C34.90740209 238.95646755 34.40737279 241.69103237 33.90734863 244.42559814 C33.72365408 245.43018462 33.72365408 245.43018462 33.53624853 246.45506576 C30.96188357 260.53411274 28.39201294 274.61397861 25.82348633 288.6940918 C25.41382493 290.93967606 25.004163 293.18526023 24.59450054 295.43084431 C23.99227312 298.73201545 23.39004936 302.03318727 22.78783816 305.33436137 C15.7684523 343.81210551 8.73438802 382.28715316 1.69200462 420.76069409 C-4.8519412 456.51149524 -11.38575136 492.26414154 -17.9104929 528.01845264 C-19.53721365 536.93255107 -21.16448703 545.84654806 -22.79275078 554.76036477 C-23.87334733 560.67626189 -24.95327877 566.59228015 -26.03265148 572.50840068 C-26.6457722 575.86887322 -27.25916631 579.22929519 -27.87335396 582.58957291 C-28.53500003 586.2104379 -29.19550082 589.83151002 -29.85571289 593.45263672 C-30.04453065 594.48443274 -30.23334841 595.51622877 -30.42788792 596.57929134 C-30.78000596 598.51319747 -31.12877932 600.44771638 -31.47377396 602.38290596 C-31.83922441 604.43009471 -32.21390124 606.47564637 -32.59504318 608.51997185 C-32.78615299 609.58261316 -32.9772628 610.64525448 -33.17416382 611.74009705 C-33.43785295 613.17457388 -33.43785295 613.17457388 -33.70686913 614.63803005 C-34.15508877 618.81217493 -33.5099383 621.9046978 -30.98999023 625.2746582 C-21.57339972 633.66160164 -9.78395934 634.73109259 2.39672852 634.09887695 C21.68226374 631.88137639 39.29132523 623.83675893 54.01000977 611.2746582 C54.79633789 610.63270508 55.58266602 609.99075195 56.39282227 609.3293457 C69.31408399 598.35234906 77.57964307 584.64611879 85.36157227 569.7902832 C85.76102051 569.02949463 86.16046875 568.26870605 86.57202148 567.48486328 C87.34345336 566.00905989 88.10849058 564.52988969 88.8659668 563.046875 C91.73364265 557.51185338 94.57916288 552.78467909 100.07250977 549.5246582 C100.74411133 549.11731445 101.41571289 548.7099707 102.10766602 548.2902832 C105.9557024 546.23589006 109.12698843 546.13383697 113.42163086 546.09765625 C114.39047462 546.08779945 114.39047462 546.08779945 115.37889099 546.07774353 C117.51374433 546.05805244 119.64852751 546.0463584 121.78344727 546.03637695 C122.51363697 546.03230143 123.24382668 546.0282259 123.99614334 546.02402687 C127.85981207 546.00318563 131.72344546 545.98887461 135.5871582 545.97949219 C139.57423811 545.96842176 143.56076083 545.93400976 147.54764366 545.89432049 C150.61718779 545.86816089 153.68659886 545.85980107 156.75624466 545.85621071 C158.22584427 545.85134428 159.69543792 545.83972853 161.16492844 545.82117271 C163.22360061 545.79678942 165.28082686 545.79774335 167.33959961 545.8046875 C168.50969574 545.79882126 169.67979187 545.79295502 170.88534546 545.78691101 C174.65975494 546.37608074 176.29343039 547.64541292 179.01000977 550.2746582 C183.16085786 556.68726873 182.29394104 565.02450491 181.07250977 572.2121582 C173.42744398 606.25172713 149.61756056 639.32716747 123.06079102 661.5402832 C120.51640313 663.69210839 118.08353943 665.95197697 115.63500977 668.2121582 C110.59488375 672.8041198 105.36405321 677.0580773 100.01000977 681.2746582 C97.20994585 683.49346991 94.42066438 685.72529292 91.63500977 687.9621582 C90.9444751 688.50912354 90.25394043 689.05608887 89.54248047 689.61962891 C85.87985963 692.56722003 82.78940503 695.43339142 80.01000977 699.2746582 C85.89810457 712.36744043 93.54122656 723.7186003 102.01000977 735.2746582 C102.60152832 736.08370605 103.19304687 736.89275391 103.80249023 737.72631836 C106.71052269 741.69722583 109.63272356 745.65734042 112.56469727 749.6105957 C115.98007877 754.22165001 119.3434995 758.86886085 122.69750977 763.5246582 C123.23005371 764.26031006 123.76259766 764.99596191 124.3112793 765.75390625 C126.92099449 769.3606048 129.50849476 772.97979729 132.05688477 776.63012695 C133.02041274 777.99081374 133.98395377 779.35149126 134.94750977 780.7121582 C135.58402466 781.64366699 135.58402466 781.64366699 136.23339844 782.59399414 C139.80146594 787.59279707 143.95352952 790.25308322 150.01000977 791.2746582 C161.59757994 792.23720397 170.93466315 789.58690067 180.01000977 782.2746582 C185.79883846 776.33739801 186.26082412 769.96850583 186.44750977 762.0871582 C187.31957055 739.51947094 192.06286978 719.07691648 203.01000977 699.2746582 C203.75637695 697.84766602 203.75637695 697.84766602 204.51782227 696.3918457 C220.21712005 668.85642812 250.90826866 655.33177518 280.01000977 647.2746582 C322.61774462 636.20661496 374.8105632 644.87149307 416.24584961 657.94042969 C421.36083279 659.46549258 425.88267134 659.71693203 431.01000977 658.2746582 C434.42061179 656.18355282 435.66724796 654.47710488 436.76245117 650.63500977 C437.40625002 647.39800358 437.88720066 644.17107209 438.32250977 640.8996582 C438.49073242 639.78848633 438.65895508 638.67731445 438.83227539 637.5324707 C440.65385934 627.60040609 440.65385934 627.60040609 438.38500977 618.1496582 C431.57007503 609.90000037 423.4874963 606.80883283 413.01000977 605.2746582 C385.71012996 603.50905491 358.02669431 607.0092869 330.95532227 610.20825195 C319.23197448 611.5935053 307.7008044 612.54690523 295.88500977 612.5871582 C294.74032227 612.59263672 293.59563477 612.59811523 292.41625977 612.60375977 C274.03792892 612.44551404 274.03792892 612.44551404 267.01000977 606.2746582 C263.3675127 601.22216228 264.08283988 597.11334887 265.01000977 591.2746582 C265.88962395 586.44295238 266.84843769 581.63257634 267.85644531 576.82617188 C268.32313604 574.58414953 268.77109911 572.33885976 269.21899414 570.09301758 C269.51927966 568.64941919 269.82067394 567.20605089 270.12329102 565.76293945 C270.3172924 564.76898918 270.3172924 564.76898918 270.51521301 563.75495911 C271.98631631 556.95825694 275.23710453 552.12326169 281.01000977 548.2746582 C285.58590177 546.42500116 289.44951778 546.02182716 294.36798096 546.01396179 C295.08727964 546.01013624 295.80657833 546.0063107 296.54767394 546.00236923 C298.94697841 545.99208868 301.34604133 545.99602208 303.74536133 546 C305.47071554 545.99565038 307.19606782 545.9904664 308.92141724 545.98451233 C313.60396116 545.9711275 318.28642432 545.97054386 322.96898365 545.97307563 C326.88944257 545.97414723 330.80988528 545.96925633 334.73034072 545.96447021 C343.99480006 545.95337349 353.25921887 545.95293637 362.52368164 545.95898438 C372.04267458 545.96500388 381.56151895 545.95276518 391.08048654 545.93141431 C399.27785814 545.91371186 407.47518287 545.9078111 415.67257285 545.91105205 C420.55688495 545.91285379 425.44109145 545.91034222 430.32538605 545.89633751 C434.9317926 545.88362512 439.5379712 545.88582792 444.14437485 545.8987484 C445.82032986 545.90108614 447.49630158 545.89848232 449.1722374 545.89012527 C473.74905706 545.77657257 497.20619952 550.29544174 515.69360352 567.83325195 C532.24881176 585.28182725 534.74380027 605.89534485 534.15896606 628.91326904 C533.7013661 639.23959679 532.19130017 649.4759936 530.82250977 659.7121582 C530.56588271 661.70396733 530.30929051 663.69578155 530.05454254 665.68783188 C527.94773525 682.15837059 525.69626396 698.60908139 523.42637634 715.05781555 C522.36015298 722.78532712 521.30325922 730.51411149 520.24709034 738.24300289 C519.34741606 744.81490078 518.43084325 751.38417439 517.50177288 757.95197773 C516.91900841 762.09458757 516.34983929 766.2389894 515.78390312 770.3839283 C515.51600117 772.32410956 515.2423254 774.26350366 514.96245003 776.20199394 C512.53106885 791.75996494 512.53106885 791.75996494 516.69750977 806.6496582 C520.63032794 811.1139383 525.07481786 813.44286489 531.01000977 814.2746582 C536.67280168 814.18147302 542.48114907 813.95503894 547.88500977 812.1496582 C551.73697499 811.07110794 554.16527037 811.18652441 558.01000977 812.2746582 C560.51000977 814.2746582 560.51000977 814.2746582 562.01000977 817.2746582 C561.99130249 819.22834778 561.99130249 819.22834778 561.69897461 821.41455078 C561.59349304 822.21269196 561.48801147 823.01083313 561.3793335 823.8331604 C560.81243148 827.58079404 560.18039165 831.31019312 559.48657227 835.03637695 C559.26630875 836.22781059 559.26630875 836.22781059 559.04159546 837.4433136 C558.73244615 839.10659415 558.42144219 840.76953098 558.10864258 842.43212891 C557.63454071 844.96466376 557.17373574 847.49940348 556.71313477 850.03442383 C556.40926179 851.66022732 556.10460138 853.28588388 555.79907227 854.91137695 C555.66457672 855.66150558 555.53008118 856.41163422 555.39151001 857.18449402 C554.09013272 863.9561527 551.83314151 869.59429962 546.31079102 873.95043945 C538.36067278 878.52614418 528.6386724 878.54635851 519.69750977 878.6496582 C518.49167236 878.67068604 518.49167236 878.67068604 517.26147461 878.69213867 C503.22272007 878.58476244 489.79768527 874.8979382 476.53952026 870.6312561 C472.62834847 869.37598438 468.70410009 868.16308883 464.77954102 866.95043945 C464.01569595 866.71413315 463.25185089 866.47782684 462.46485901 866.23435974 C456.33373541 864.34909195 450.18071073 862.60616371 443.94750977 861.0871582 C443.17761719 860.89138184 442.40772461 860.69560547 441.61450195 860.49389648 C432.1194885 858.28541109 423.32619237 859.00362805 414.04125977 861.72387695 C412.67547791 862.10357887 412.67547791 862.10357887 411.28210449 862.49095154 C409.34989534 863.02815689 407.41920541 863.57085334 405.48999023 864.11871338 C353.16822131 878.92771151 297.98386908 887.89117023 248.01000977 861.2746582 C244.59123597 859.32831909 241.22128824 857.30889114 237.90429688 855.19360352 C231.03907099 850.85475703 225.90272119 849.50074215 218.01000977 851.2746582 C214.74203036 852.38004525 211.6417385 853.7700908 208.51000977 855.2121582 C206.65691613 856.03229535 204.80269904 856.84989759 202.94750977 857.6652832 C201.98071289 858.09260742 201.01391602 858.51993164 200.01782227 858.96020508 C170.62585295 871.80487738 137.02702515 885.7903372 105.01000977 874.2746582 C95.96014418 870.70645212 88.1839462 865.81116895 81.01000977 859.2746582 C80.13989258 858.48575195 79.26977539 857.6968457 78.37329102 856.8840332 C60.20698434 839.57291643 48.65993161 817.16715122 36.6628418 795.44140625 C16.2306302 756.27045702 16.2306302 756.27045702 -17.98999023 730.2746582 C-27.03872416 727.89491243 -37.46940057 728.32242702 -45.98999023 732.2746582 C-52.95481427 736.40448537 -56.5484084 743.27000503 -58.74684334 750.90217972 C-59.35131332 753.68909539 -59.85853035 756.47638208 -60.33007812 759.28881836 C-60.5194545 760.34056747 -60.70883087 761.39231659 -60.90394592 762.47593689 C-61.30963086 764.74066335 -61.70821093 767.00667207 -62.10029793 769.27379227 C-62.72182765 772.86679614 -63.36236847 776.45596451 -64.00767517 780.04476929 C-65.37325379 787.66004372 -66.71364021 795.27964712 -68.05249023 802.8996582 C-69.60886048 811.74124863 -71.17560875 820.58084746 -72.76153374 829.41718674 C-73.39013461 832.9450319 -74.00335212 836.47532147 -74.61573792 840.00601196 C-75.00290063 842.17722688 -75.39071891 844.34832503 -75.77929688 846.51928711 C-75.94407532 847.49404495 -76.10885376 848.4688028 -76.27862549 849.47309875 C-77.49135672 856.12587018 -79.12839697 862.38010993 -84.02514648 867.33325195 C-84.69416992 867.78829102 -85.36319336 868.24333008 -86.05249023 868.7121582 C-86.7240918 869.18524414 -87.39569336 869.65833008 -88.08764648 870.14575195 C-92.05736053 872.50149602 -95.50474994 872.41713582 -100.02832031 872.45166016 C-101.09716713 872.46151695 -101.09716713 872.46151695 -102.18760681 872.47157288 C-104.54491281 872.49127755 -106.9021552 872.50296195 -109.25952148 872.51293945 C-110.46877572 872.51905274 -110.46877572 872.51905274 -111.70245934 872.52528954 C-115.96928017 872.54613796 -120.23606896 872.56044511 -124.50292969 872.56982422 C-128.90465883 872.58088767 -133.30588231 872.61528995 -137.70743275 872.65499592 C-141.09698919 872.6811685 -144.48642523 872.68951659 -147.87607384 872.6931057 C-149.4983531 872.69796982 -151.12062706 872.70957895 -152.74280739 872.72814369 C-155.0167691 872.75255058 -157.28942336 872.75156807 -159.56347656 872.74462891 C-160.85570633 872.75049515 -162.1479361 872.75636139 -163.47932434 872.7624054 C-167.63077006 872.18563277 -169.76039217 870.90268393 -172.98999023 868.2746582 C-178.43463241 859.6686109 -174.86859491 848.78784297 -173.09960938 839.3449707 C-172.90553938 838.28653615 -172.71146938 837.2281016 -172.51151848 836.13759327 C-171.85394773 832.55742732 -171.18940887 828.97858816 -170.52514648 825.3996582 C-170.03649378 822.74518207 -169.54828623 820.09062782 -169.0606842 817.43595886 C-167.9794731 811.55333505 -166.89503494 805.67131362 -165.80865479 799.78964233 C-162.83183162 783.67078478 -159.87466052 767.54830936 -156.9156208 751.42617965 C-156.38637442 748.54297319 -155.85694159 745.65980102 -155.32746887 742.77663612 C-148.5294591 705.75608182 -141.78650624 668.72557107 -135.05639648 631.69262695 C-134.86099793 630.61745732 -134.86099793 630.61745732 -134.66165194 629.52056709 C-131.43839463 611.78474735 -128.21620192 594.04873427 -124.99440015 576.31265008 C-119.78532188 547.63666954 -114.57398985 518.96109853 -109.36125621 490.28578225 C-109.09287515 488.80941226 -108.82449652 487.33304182 -108.55612031 485.85667095 C-101.93548969 449.43578455 -95.30979653 413.01584582 -88.64624023 376.6027832 C-88.49354077 375.76829376 -88.34084131 374.93380431 -88.1835146 374.0740273 C-85.3012727 358.32336715 -82.4159411 342.5732753 -79.52486062 326.82423502 C-77.95462053 318.27019181 -76.3857729 309.71589381 -74.81811523 301.16137695 C-74.67409366 300.37555072 -74.53007208 299.58972448 -74.38168621 298.78008533 C-68.93636601 269.06397529 -63.56270332 239.33499779 -58.19852318 209.60415594 C-56.30048767 199.08446762 -54.40018183 188.56519169 -52.49801636 178.04624939 C-52.37239301 177.35152023 -52.24676966 176.65679107 -52.11733954 175.94100951 C-50.97328037 169.61409241 -49.82913161 163.28719152 -48.68461013 156.96035802 C-45.78312354 140.92093192 -42.88756116 124.88047335 -40.00573426 108.83750247 C-37.9988804 97.66624464 -35.9831049 86.49663216 -33.95900679 75.32848316 C-32.84915863 69.20289085 -31.74361056 63.07659618 -30.64879608 56.9482975 C-29.63517991 51.27486485 -28.61019168 45.60360837 -27.57625079 39.93384564 C-27.20226894 37.8715308 -26.83249458 35.80844769 -26.46731877 33.74455535 C-25.96945772 30.9342873 -25.45641024 28.12719898 -24.93954468 25.32037354 C-24.80046275 24.51396087 -24.66138082 23.7075482 -24.51808429 22.87669879 C-23.25660993 16.17948973 -21.05555378 9.29702538 -15.55249023 4.8996582 C-14.9969043 4.43817383 -14.44131836 3.97668945 -13.86889648 3.5012207 C-9.31594879 0.52902616 -5.38953471 0.02015385 0 0 Z " fill="#FCC200" transform="translate(1009.989990234375,581.725341796875)"/>
<path d="M0 0 C1.01057465 0.08800873 1.01057465 0.08800873 2.04156494 0.17779541 C21.19123197 1.87873197 21.19123197 1.87873197 26.5 7.1875 C31.81300451 16.04250751 28.23685351 27.34734738 26.515625 36.90625 C26.25582216 38.37392218 25.99636805 39.84165613 25.73724365 41.30944824 C25.19437669 44.37312277 24.64555921 47.43565887 24.09277344 50.49755859 C23.3892451 54.39858257 22.70339074 58.30247854 22.02234268 62.20748138 C21.49167777 65.23576239 20.95019775 68.26203687 20.40569305 71.28785706 C20.14855151 72.72555022 19.89499213 74.16388935 19.6452713 75.60289001 C16.26137004 95.02515711 16.26137004 95.02515711 9.9375 100.1875 C-2.81503679 106.69943368 -18.50496643 101.71396489 -31.49462891 98.31591797 C-35.22128248 97.38116779 -38.97264165 96.6347535 -42.75 95.9375 C-43.94109375 95.71578125 -45.1321875 95.4940625 -46.359375 95.265625 C-68.08301708 91.81594793 -91.49064902 92.07968172 -110.58984375 104.3515625 C-112.83700158 106.0340499 -114.92103354 107.80230129 -117 109.6875 C-118.01126953 110.54408203 -118.01126953 110.54408203 -119.04296875 111.41796875 C-133.03604052 124.11187718 -137.162435 142.10193787 -138.92625427 160.18347168 C-139.08812121 161.74337484 -139.25096441 163.30317693 -139.41467327 164.86288786 C-139.86558486 169.20246733 -140.29758452 173.54373405 -140.72424707 177.88575816 C-141.00558181 180.74421306 -141.29031752 183.60231242 -141.57583928 186.46035194 C-143.02224056 200.96117249 -144.42313955 215.46627007 -145.81652081 229.97226691 C-146.37892973 235.82165018 -146.94385945 241.67078968 -147.50873335 247.51993534 C-148.66150969 259.45733817 -149.81205407 271.39495502 -150.96141243 283.33268738 C-152.60419369 300.39473552 -154.25144334 317.45635075 -155.8995587 334.51788435 C-156.56359525 341.39228748 -157.22749129 348.26670418 -157.89138699 355.14112091 C-158.00195739 356.28602998 -158.00195739 356.28602998 -158.11476153 357.45406852 C-159.86215864 375.5478896 -161.60818051 393.64184331 -163.35375977 411.73583984 C-163.42996776 412.52577128 -163.50617576 413.31570272 -163.58469309 414.12957148 C-165.36462899 432.57956439 -167.14387779 451.0296234 -168.92193604 469.47979736 C-168.99856653 470.27495521 -169.07519703 471.07011306 -169.15414966 471.88936661 C-169.54066446 475.9000575 -169.92717416 479.91074888 -170.31368338 483.9214403 C-170.39008948 484.71428176 -170.46649558 485.50712321 -170.54521701 486.32399016 C-170.69943572 487.92427017 -170.85365364 489.52455026 -171.00787076 491.12483043 C-173.55916304 517.59884585 -176.11405745 544.07251172 -178.67290029 570.54579843 C-179.03452962 574.28719618 -179.39611056 578.02859861 -179.757658 581.77000427 C-179.82879356 582.50613361 -179.89992911 583.24226294 -179.97322029 584.00069923 C-181.1136438 595.80335204 -182.25017955 607.60637609 -183.38513059 619.40955627 C-184.52575701 631.27111322 -185.67015592 643.13230129 -186.8183778 654.99312544 C-187.4391799 661.40759168 -188.05827541 667.82221034 -188.67269516 674.23729134 C-189.23620288 680.12046105 -189.80467332 686.00313029 -190.37692683 691.88545555 C-190.58193755 694.00163596 -190.78519386 696.11798732 -190.98641468 698.23453146 C-192.67999362 716.03108396 -194.5546553 733.81731547 -199.1875 751.125 C-199.48793213 752.26042236 -199.78836426 753.39584473 -200.09790039 754.56567383 C-207.73334414 782.57539659 -220.21445817 809.21389203 -240 830.6875 C-240.86238281 831.63238281 -241.72476562 832.57726563 -242.61328125 833.55078125 C-270.98390719 863.26638502 -311.41421264 875.76770978 -351.64453125 876.90625 C-375.47218731 877.33553335 -398.56753674 874.84299424 -421.79077148 869.66943359 C-434.43112889 866.57771402 -434.43112889 866.57771402 -446.70703125 869.3671875 C-447.73183594 870.09164062 -448.75664062 870.81609375 -449.8125 871.5625 C-456.3773812 876.11306361 -461.49640494 878.06155894 -469.5 878 C-470.24612549 877.99726074 -470.99225098 877.99452148 -471.76098633 877.99169922 C-479.76611164 877.85442793 -487.7245426 877.09431807 -495.6875 876.3125 C-497.63849609 876.12361206 -497.63849609 876.12361206 -499.62890625 875.9309082 C-516.51656204 874.16994877 -516.51656204 874.16994877 -520.375 869.4375 C-520.85710937 868.87546875 -521.33921875 868.3134375 -521.8359375 867.734375 C-524.66017954 862.76825813 -523.99086277 857.29879636 -523.41088867 851.82128906 C-523.33621872 851.05619019 -523.26154877 850.29109131 -523.18461609 849.50280762 C-522.93684336 846.9854039 -522.67767846 844.46932303 -522.41796875 841.953125 C-522.24141906 840.19209197 -522.06542795 838.43100286 -521.88996887 836.66986084 C-521.52072282 832.980883 -521.14607194 829.29250734 -520.76733398 825.60449219 C-520.2845052 820.90053711 -519.81297828 816.19553655 -519.34528637 811.49005508 C-518.98277427 807.85204298 -518.61524808 804.21455105 -518.24614906 800.57720184 C-518.07066326 798.84396 -517.89645327 797.11058846 -517.72359276 795.37708282 C-515.152744 769.69903466 -515.152744 769.69903466 -510 763.6875 C-503.05268145 758.44156559 -497.48020372 758.05507803 -489 758.6875 C-479.18403208 760.25708897 -470.24373753 764.14285382 -461.125 767.9375 C-424.10280403 783.3373165 -378.61715625 797.35145359 -339.44677734 781.29785156 C-317.7723396 771.70188736 -305.06891426 753.37848647 -296.5234375 731.9921875 C-290.00658065 713.48111559 -287.96056338 694.30799653 -286.0821991 674.88005066 C-285.82584958 672.30813138 -285.5686047 669.73630121 -285.31051749 667.16455573 C-284.65385786 660.5962032 -284.00940026 654.02671873 -283.36863896 647.45679852 C-282.80427551 641.6862356 -282.22974847 635.9166913 -281.65596962 630.14705849 C-280.43454981 617.83720912 -279.23360794 605.52539981 -278.03589094 593.21322501 C-277.42168499 586.90361536 -276.80542537 580.59420623 -276.18939209 574.28477478 C-275.19739126 564.12275163 -274.20619996 553.96064993 -273.21571594 543.79847883 C-271.54506797 526.65832553 -269.87065974 509.51854095 -268.19506677 492.37887043 C-267.8355867 488.70169552 -267.47614007 485.02451734 -267.11669046 481.34733945 C-266.97195777 479.86672839 -266.82722496 478.38611734 -266.68249201 476.90550631 C-266.61066137 476.17068171 -266.53883073 475.43585711 -266.46482341 474.67876509 C-266.24644509 472.44477625 -266.0280633 470.21078775 -265.80968115 467.97679928 C-264.18017286 451.30725264 -262.55115732 434.63765788 -260.92260742 417.96801758 C-260.84846004 417.20906817 -260.77431266 416.45011876 -260.69791838 415.66817088 C-258.28207276 390.94001687 -255.87034871 366.21146262 -253.46034443 341.4827387 C-250.96948529 315.92467173 -248.47356893 290.36710308 -245.9716518 264.81011612 C-245.61847386 261.2023721 -245.26535817 257.59462198 -244.91228294 253.9868679 C-244.84282354 253.27713802 -244.77336414 252.56740814 -244.7017999 251.83617129 C-243.58821099 240.45600081 -242.47999693 229.07531316 -241.37390434 217.69441189 C-240.26436121 206.27905384 -239.14922926 194.86425584 -238.0287656 183.44996379 C-237.42298781 177.27708279 -236.81966899 171.10398767 -236.22301292 164.93021774 C-235.67635768 159.27434946 -235.12264079 153.61921757 -234.56343081 147.96457722 C-234.36305951 145.92593954 -234.1652258 143.88705041 -233.97027294 141.84788743 C-232.54302304 126.94064729 -230.65901275 112.43624747 -225.8125 98.1875 C-225.51134277 97.29877197 -225.21018555 96.41004395 -224.89990234 95.49438477 C-213.36695655 62.62815481 -187.47002016 38.83817057 -156.6875 23.9375 C-150.34419773 20.96688037 -143.91978509 18.44999789 -137.25 16.3125 C-136.54319092 16.08594727 -135.83638184 15.85939453 -135.1081543 15.62597656 C-122.53445951 11.83691707 -110.60742501 10.22621999 -97.5 10.4375 C-96.10563886 10.44811707 -94.71126955 10.45770508 -93.31689453 10.46630859 C-83.89518126 10.5460116 -74.48058757 10.85320163 -65.08007812 11.50683594 C-59.01916919 11.87506474 -54.58417366 11.62254896 -49.54296875 7.84765625 C-48.76566406 7.15542969 -47.98835938 6.46320312 -47.1875 5.75 C-33.70383935 -5.2403802 -16.23343261 -1.47758357 0 0 Z " fill="#FCC200" transform="translate(829,583.3125)"/>
<path d="M0 0 C1.05180702 -0.0098568 1.05180702 -0.0098568 2.12486267 -0.01991272 C4.44489657 -0.03961846 6.76486577 -0.05130302 9.08496094 -0.0612793 C10.27579411 -0.06739259 10.27579411 -0.06739259 11.49068451 -0.07362938 C15.69381957 -0.09447987 19.89692209 -0.10878522 24.10009766 -0.11816406 C28.43223024 -0.12921827 32.76384774 -0.16360925 37.09579849 -0.20333576 C40.43478319 -0.22953594 43.77364586 -0.23785895 47.1127243 -0.24144554 C48.70905785 -0.2463038 50.30538623 -0.25789611 51.90161896 -0.27648354 C54.14185372 -0.30094578 56.38076513 -0.29989775 58.62109375 -0.29296875 C59.89333801 -0.29883499 61.16558228 -0.30470123 62.47637939 -0.31074524 C67.24244377 0.33625243 71.4117055 2.02019871 74.44433594 5.96606445 C77.7220365 15.59430986 74.48176088 26.0192881 72.67456055 35.72143555 C72.42681004 37.067896 72.1794229 38.41442334 71.93236542 39.76101112 C71.39848681 42.66651646 70.86204752 45.57153302 70.32360649 48.47619629 C69.45189475 53.17892352 68.58612938 57.88273491 67.72096252 62.58666992 C66.14791779 71.1348863 64.56960885 79.68212494 62.99026489 88.22917938 C60.17873293 103.44493403 57.37317894 118.66179276 54.56949091 133.87899446 C54.06366611 136.62407277 53.55762614 139.36911135 53.05157089 142.11414719 C48.57548539 166.39937991 44.16199004 190.69492412 39.82467842 215.0053215 C38.99053983 219.67959746 38.15358035 224.3533652 37.31590271 229.02700806 C37.04360877 230.54657638 36.77131725 232.06614514 36.49902821 233.58571434 C36.09736321 235.82723034 35.69566605 238.06874053 35.29383981 240.31022763 C33.7418991 248.96885475 32.20069679 257.629241 30.6765334 266.2928021 C29.61596485 272.31573001 28.53800412 278.33542541 27.45371819 284.35412598 C27.0162271 286.79998327 26.58476552 289.24692815 26.1598835 291.69500732 C25.58231827 295.01936245 24.98372568 298.33926864 24.37988281 301.65893555 C24.218936 302.61660513 24.05798918 303.57427471 23.89216518 304.56096458 C22.53219701 311.83997167 19.98096944 317.41095012 14.56933594 322.55200195 C9.64287035 325.75420459 5.76222037 326.43033771 -0.10424805 326.45166016 C-1.15890259 326.45932655 -1.15890259 326.45932655 -2.23486328 326.46714783 C-4.54891577 326.48099791 -6.86266891 326.4800906 -9.17675781 326.4777832 C-10.79191701 326.48167257 -12.40707519 326.48600774 -14.02223206 326.49076843 C-17.40393391 326.49822071 -20.78553134 326.49794652 -24.16723633 326.49267578 C-28.49261802 326.4868815 -32.81757144 326.50381573 -37.14288235 326.52702045 C-40.47754906 326.54177917 -43.81211313 326.54262661 -47.14680672 326.53951073 C-48.741149 326.54002283 -50.33549719 326.54523979 -51.92980766 326.55532265 C-54.16271374 326.56771204 -56.39479191 326.56088126 -58.62768555 326.54931641 C-59.89611801 326.54994583 -61.16455048 326.55057526 -62.47142029 326.55122375 C-66.3460091 326.13206983 -68.67508778 325.30986161 -71.93066406 323.17700195 C-76.62686589 316.80859012 -75.44469423 309.46353814 -74.54300117 301.94425201 C-74.00939089 298.55890705 -73.39815637 295.1969544 -72.75708008 291.83032227 C-72.52363892 290.5534961 -72.29019775 289.27666994 -72.04968262 287.96115208 C-71.40929618 284.45992259 -70.75474541 280.96147576 -70.09771466 277.46333718 C-69.39153342 273.68887762 -68.69913557 269.91188787 -68.00511169 266.13517761 C-66.65182516 258.78229018 -65.28676445 251.43163858 -63.91758913 244.08169514 C-62.16726703 234.68296022 -60.43054396 225.28172174 -58.69433594 215.88037109 C-58.05036171 212.39386806 -57.40633493 208.90737474 -56.76229858 205.42088318 C-56.60191428 204.552538 -56.44152997 203.68419282 -56.27628553 202.78953415 C-55.29407429 197.4725113 -54.31037334 192.1557664 -53.32557952 186.8392213 C-48.99896986 163.4798605 -44.73144197 140.11057924 -40.52467155 116.72934341 C-39.6556266 111.89974794 -38.78444964 107.07053879 -37.91273499 102.24142456 C-37.62832078 100.66557021 -37.34390807 99.0897156 -37.05949688 97.5138607 C-36.63890577 95.18352974 -36.21829621 92.85320211 -35.79761469 90.52288747 C-34.16507507 81.4786144 -32.53948633 72.43315229 -30.92437965 63.38574952 C-29.91588582 57.74043524 -28.89846017 52.09677583 -27.87410992 46.45431739 C-27.28661001 43.2163472 -26.70467046 39.97754714 -26.13107109 36.73708153 C-25.51047701 33.23370038 -24.8747924 29.73338108 -24.23535156 26.23339844 C-24.05989083 25.22113316 -23.8844301 24.20886787 -23.70365238 23.16592789 C-22.4549138 16.45462235 -20.84082012 10.12067228 -15.89550781 5.1184082 C-14.89197266 4.43584961 -14.89197266 4.43584961 -13.86816406 3.73950195 C-12.86076172 3.02987305 -12.86076172 3.02987305 -11.83300781 2.3059082 C-7.89421088 -0.03148875 -4.48790686 0.03481303 0 0 Z " fill="#FCC200" transform="translate(747.9306640625,1127.822998046875)"/>
<path d="M0 0 C1.40958984 0.64388672 1.40958984 0.64388672 2.84765625 1.30078125 C13.07140297 6.40546492 22.83961437 14.05556213 27 25 C29.16492603 31.64190899 29.59985819 37.43680244 27 44 C20.26254561 57.24805847 8.1161126 64.27178858 -5.40234375 69.25390625 C-32.87176308 78.10552651 -63.95499978 76.93318255 -90 64 C-101.18744138 57.6708499 -110.61371757 50.77354994 -115.375 38.4375 C-116.86830219 30.22433793 -115.96871107 24.35206652 -112 17 C-101.56354336 2.0983252 -83.71499005 -4.9045183 -66.40625 -8.0859375 C-44.21617107 -11.63085413 -20.48638727 -9.4787762 0 0 Z " fill="#E20613" transform="translate(1409,1304)"/>
<path d="M0 0 C0.65302094 -0.00511093 1.30604187 -0.01022186 1.97885132 -0.01548767 C4.11490308 -0.02926865 6.25062811 -0.02843605 8.38671875 -0.02612305 C9.88452268 -0.03001562 11.38232552 -0.03435143 12.88012695 -0.03910828 C16.01029042 -0.04654524 19.14034102 -0.04629712 22.27050781 -0.04101562 C26.26841396 -0.03521684 30.26585745 -0.05217378 34.26368713 -0.0753603 C37.35390899 -0.09013662 40.44402031 -0.09096419 43.53427124 -0.08785057 C45.00777098 -0.08836158 46.48127726 -0.09355768 47.95474243 -0.10366249 C50.0196084 -0.11608957 52.08358429 -0.10919966 54.1484375 -0.09765625 C55.31979248 -0.09828568 56.49114746 -0.0989151 57.69799805 -0.0995636 C62.74200685 0.45951658 66.65648479 1.9688506 70.44921875 5.4621582 C74.75603003 12.91625465 72.57313808 21.01272378 71.08984375 29.0246582 C70.87358337 30.23734375 70.657323 31.4500293 70.43450928 32.69946289 C69.97597797 35.2554943 69.5116866 37.8104983 69.04199219 40.36450195 C68.32706807 44.25913619 67.63285443 48.15704533 66.94140625 52.0559082 C66.49211181 54.54571316 66.0416304 57.03530427 65.58984375 59.5246582 C65.28025726 61.26247559 65.28025726 61.26247559 64.9644165 63.03540039 C61.90401965 79.52253387 61.90401965 79.52253387 56.13671875 84.1496582 C55.46769531 84.70395508 54.79867187 85.25825195 54.109375 85.8293457 C49.60845269 89.02577805 46.50579677 89.53212784 40.92236328 89.56518555 C39.85329742 89.57526138 39.85329742 89.57526138 38.76263428 89.58554077 C36.41069533 89.60451083 34.0590419 89.60844444 31.70703125 89.6105957 C30.0680225 89.61702441 28.42901489 89.62375283 26.79000854 89.63076782 C23.35525859 89.64273815 19.92060919 89.64644891 16.48583984 89.64526367 C12.09194782 89.64506051 7.69870281 89.67235996 3.30496407 89.70680809 C-0.08032167 89.72908349 -3.46545186 89.73310102 -6.85080338 89.73204422 C-8.47027948 89.73439932 -10.08975994 89.74321778 -11.70916367 89.75870895 C-13.97827763 89.77838258 -16.24599865 89.77252686 -18.51513672 89.76049805 C-20.44895706 89.7647731 -20.44895706 89.7647731 -22.42184448 89.76913452 C-26.55814682 89.18541864 -28.69734536 87.87965816 -31.92578125 85.2746582 C-37.3811629 77.27343179 -34.4918988 67.63542944 -32.87890625 58.7434082 C-32.6664325 57.5529187 -32.45395874 56.3624292 -32.23504639 55.13586426 C-31.78469046 52.62727278 -31.33061606 50.11934635 -30.87304688 47.61206055 C-30.17852259 43.78974515 -29.5047281 39.96414867 -28.83203125 36.13793945 C-28.39058466 33.69370082 -27.94791685 31.24968237 -27.50390625 28.8059082 C-27.3058136 27.66923706 -27.10772095 26.53256592 -26.90362549 25.3614502 C-25.50227793 17.82763628 -23.82163293 10.02636389 -17.61328125 4.8996582 C-17.08089844 4.43817383 -16.54851563 3.97668945 -16 3.5012207 C-11.0145429 0.55313496 -5.68479576 0.0223605 0 0 Z " fill="#FCC200" transform="translate(785.92578125,934.725341796875)"/>
</svg>
